<?xml version="1.0" encoding="UTF-8" standalone="no"?>
<!-- Created with Inkscape (http://www.inkscape.org/) -->

<svg
   version="1.1"
   id="svg2"
   width="666.66669"
   height="666.66669"
   viewBox="0 0 666.66669 666.66669"
   sodipodi:docname="21830398_6536746.eps"
   xmlns:inkscape="http://www.inkscape.org/namespaces/inkscape"
   xmlns:sodipodi="http://sodipodi.sourceforge.net/DTD/sodipodi-0.dtd"
   xmlns="http://www.w3.org/2000/svg"
   xmlns:svg="http://www.w3.org/2000/svg">
  <defs
     id="defs6" />
  <sodipodi:namedview
     id="namedview4"
     pagecolor="#ffffff"
     bordercolor="#000000"
     borderopacity="0.25"
     inkscape:showpageshadow="2"
     inkscape:pageopacity="0.0"
     inkscape:pagecheckerboard="0"
     inkscape:deskcolor="#d1d1d1" />
  <g
     id="g8"
     inkscape:groupmode="layer"
     inkscape:label="ink_ext_XXXXXX"
     transform="matrix(1.3333333,0,0,-1.3333333,0,666.66667)">
    <g
       id="g10"
       transform="scale(0.1)">
      <path
         d="M 0,0 H 5000 V 5000 H 0 Z"
         style="fill:#fde8cc;fill-opacity:1;fill-rule:nonzero;stroke:none"
         id="path12" />
      <path
         d="m 2280.45,461.27 c -10.91,0 -21.86,0.179 -32.79,0.531 -259.94,8.429 -505.39,117.918 -735.18,239.719 -201.66,106.878 -403.17,229.859 -537.101,414.66 -205.762,283.92 -217.32,663.44 -178.195,1011.89 65.445,582.78 251.156,1151.79 542.106,1660.97 l -12.29,-39.3 c 53.93,90.55 146.55,161.54 247.11,198.26 88.89,32.46 182.93,43.21 277.92,43.21 68.28,0 137.07,-5.56 204.72,-12.6 852.38,-88.72 1702.53,-411.05 2303.4,-1022.09 108.21,-110.04 211.38,-235.94 240.87,-387.42 31.38,-161.22 -25.2,-325.13 -80.94,-479.63 -58.26,-161.51 -117.41,-324.8 -212.58,-467.7 C 4223.02,1494.94 4112.42,1387.7 3997.14,1288.04 3673.64,1008.37 3305.73,780.172 2911.44,614.602 2710.53,530.23 2497.8,461.27 2280.45,461.27"
         style="fill:#f8a370;fill-opacity:1;fill-rule:nonzero;stroke:none"
         id="path14" />
      <path
         d="m 2527.46,3016.55 c 3.92,-3.45 8.07,-6.68 12.4,-9.61 2.29,-1.54 4.72,-2.94 7.33,-3.84 2.53,-0.88 4.96,-1.81 7.61,-0.93 1.37,0.47 2.42,1.93 1.94,3.43 -0.82,2.56 -2.55,3.79 -4.5,5.5 -1.99,1.74 -4.22,3.18 -6.44,4.62 -3.84,2.51 -7.58,5.13 -11.1,8.08 -7.3,6.11 -13.85,13.11 -19.34,20.89 -1.47,2.1 -4.14,3.08 -6.49,1.71 -2.11,-1.24 -3.13,-4.35 -1.7,-6.5 5.74,-8.6 12.52,-16.51 20.29,-23.35"
         style="fill:#fab791;fill-opacity:1;fill-rule:nonzero;stroke:none"
         id="path16" />
      <path
         d="m 2475.53,2995.18 c 1.32,-1.47 2.63,-2.94 3.95,-4.41 1.43,-1.6 2.82,-3.54 4.52,-4.85 6.26,-4.84 11.71,-10.63 17.99,-15.45 2.32,-1.78 5.38,1.63 3.92,3.92 -2.1,3.27 -4.49,6.3 -6.86,9.38 -1.18,1.54 -2.37,3.07 -3.55,4.61 -1.32,1.73 -2.32,3.68 -3.65,5.39 -2.45,3.18 -5.56,5.99 -8.32,8.91 -2.79,2.95 -5.58,5.9 -8.37,8.85 -1.97,2.08 -5.53,1.99 -7.52,0 -2.13,-2.13 -1.92,-5.38 0,-7.53 2.63,-2.94 5.26,-5.88 7.89,-8.82"
         style="fill:#fab791;fill-opacity:1;fill-rule:nonzero;stroke:none"
         id="path18" />
      <path
         d="m 2197.34,2803.37 25.59,-17.99 c 4.34,-3.06 8.69,-6.11 13.04,-9.17 4.26,-3 8.63,-6.42 13.35,-8.64 4.41,-2.07 10.35,-6.16 15.13,-3.03 5.95,3.9 0.23,10.42 -3.25,13.53 -7.93,7.11 -17.35,12.37 -26.37,17.98 -10.21,6.35 -20.42,12.7 -30.63,19.04 -3.12,1.94 -7.48,0.67 -9.29,-2.43 -1.99,-3.4 -0.58,-7.18 2.43,-9.29"
         style="fill:#fab791;fill-opacity:1;fill-rule:nonzero;stroke:none"
         id="path20" />
      <path
         d="m 2254.68,2824.04 c 4.93,-2.76 9.8,-5.87 14.96,-8.17 l 7.56,-3.38 c 1.38,-0.62 2.77,-1.35 4.22,-1.81 1.45,-0.45 2.96,-0.76 4.43,-1.14 2.68,-0.69 4.95,2.79 2.79,4.79 -2.27,2.09 -4.47,3.97 -7.06,5.66 -2.3,1.51 -4.59,3.01 -6.89,4.51 -4.73,3.09 -9.98,5.5 -14.97,8.16 -2.31,1.22 -5.54,0.65 -6.83,-1.79 -1.25,-2.36 -0.65,-5.47 1.79,-6.83"
         style="fill:#fab791;fill-opacity:1;fill-rule:nonzero;stroke:none"
         id="path22" />
      <path
         d="m 2190.37,2691.94 c 4.24,-1.82 8.52,-3.47 13.05,-4.4 2.53,-0.52 5.08,-0.9 7.64,-1.23 2.62,-0.34 4.72,0.3 7.15,1.22 3.48,1.31 4.33,5.81 1.03,7.93 -1.89,1.22 -3.54,2.4 -5.79,2.92 -1.96,0.45 -3.92,0.9 -5.86,1.45 -3.99,1.14 -7.99,2.37 -11.86,3.87 -6.51,2.52 -14.02,6.82 -19.72,11.38 -2.58,2.08 -6.15,2.53 -8.67,0 -2.2,-2.2 -2.54,-6.52 0,-8.67 6.96,-5.92 14.62,-10.86 23.03,-14.47"
         style="fill:#fab791;fill-opacity:1;fill-rule:nonzero;stroke:none"
         id="path24" />
      <path
         d="m 2513.95,2685.59 c -3.55,4.55 -7.45,9 -11.87,12.73 -9.52,8.06 -20.17,14.29 -31.82,18.73 -2.97,1.13 -6.53,-1.01 -7.63,-3.74 -1.13,-2.82 -0.28,-6.6 2.65,-8.07 4.85,-2.46 9.51,-5.29 13.9,-8.5 l 1.53,-1.15 1.07,-0.86 c 0.95,-0.78 1.89,-1.57 2.82,-2.39 2.13,-1.87 4.17,-3.84 6.14,-5.88 1.9,-1.96 3.81,-3.89 5.61,-5.94 0.9,-1.02 1.78,-2.06 2.63,-3.12 l 0.87,-1.11 0.75,-1 c 1.9,-2.55 4.11,-4.79 6.14,-7.23 2.18,-2.62 4.18,-4.76 7.66,-5.54 2.84,-0.64 5.27,0.86 6.24,3.55 1.43,3.93 0,7.38 -1.68,10.95 -1.44,3.05 -2.93,5.9 -5.01,8.57"
         style="fill:#fab791;fill-opacity:1;fill-rule:nonzero;stroke:none"
         id="path26" />
      <path
         d="m 2449.28,2655.55 c -8.78,4.7 -17.56,9.41 -26.34,14.11 -5.86,3.14 -10.85,-5.38 -5.21,-8.9 l 25.35,-15.82 c 8.62,-5.38 17.53,-9.37 27.02,-12.94 3.61,-1.35 6.8,4.11 3.83,6.57 -7.82,6.45 -15.7,12.19 -24.65,16.98"
         style="fill:#fab791;fill-opacity:1;fill-rule:nonzero;stroke:none"
         id="path28" />
      <path
         d="m 3008.69,2551.14 c -61.58,3.94 -121.29,20.82 -179.25,41.31 -5.94,2.1 -8.89,-6.54 -4.1,-9.73 27.14,-18.02 55.9,-31.46 87.44,-40.02 31.27,-8.48 63.55,-13.78 95.91,-15.45 15.41,-0.8 15.26,22.91 0,23.89"
         style="fill:#fab791;fill-opacity:1;fill-rule:nonzero;stroke:none"
         id="path30" />
      <path
         d="m 2899.06,2578.96 c 10.93,0.95 21.7,-0.32 32.08,-3.87 5.02,-1.71 9.68,-3.84 14.41,-6.22 4.96,-2.5 10.26,-4.47 15.36,-6.69 4.03,-1.74 9.74,2.17 6.71,6.72 -14.69,22.12 -45.83,26.32 -70.15,21.8 -6.55,-1.22 -5.14,-12.32 1.59,-11.74"
         style="fill:#fab791;fill-opacity:1;fill-rule:nonzero;stroke:none"
         id="path32" />
      <path
         d="m 2928.81,2488.51 c -7.8,4.51 -16.11,7.14 -24.72,9.63 -8.26,2.39 -16.53,4.78 -24.8,7.17 -3.18,0.92 -6.68,-1.12 -7.55,-4.28 -0.95,-3.45 1.18,-6.38 4.29,-7.55 8.08,-3.06 16.16,-6.12 24.24,-9.18 3.89,-1.48 7.77,-2.97 11.72,-4.28 4.39,-1.44 9.24,-2.09 13.81,-2.65 2.56,-0.31 5.12,2.08 5.76,4.39 0.7,2.54 -0.46,5.42 -2.75,6.75"
         style="fill:#fab791;fill-opacity:1;fill-rule:nonzero;stroke:none"
         id="path34" />
      <path
         d="m 2032.21,2253.52 c -7.27,2.27 -14.46,4.89 -21.4,8.04 -14.72,6.69 -28.49,15.13 -41.61,24.57 -25.18,18.13 -48.74,42.82 -63.89,69.96 -4.8,8.6 -16.51,1.04 -12.86,-7.52 14.05,-32.88 33.74,-61.16 61.79,-83.63 13.78,-11.03 28.86,-20.32 44.91,-27.67 14.31,-6.56 38.17,-19.98 52.47,-7.68 3.13,2.69 2.79,7.05 1.34,10.41 -3.54,8.18 -12.99,11.09 -20.75,13.52"
         style="fill:#fab791;fill-opacity:1;fill-rule:nonzero;stroke:none"
         id="path36" />
      <path
         d="m 1985.46,2304.84 c 2.26,-2.13 4.52,-4.27 6.78,-6.4 1.16,-1.1 2.33,-2.2 3.49,-3.3 1.51,-1.42 3.06,-2.36 4.88,-3.31 4.46,-2.35 9.18,2.35 6.83,6.83 -0.91,1.72 -1.77,3.24 -3.14,4.68 -1.09,1.17 -2.19,2.33 -3.29,3.49 -2.19,2.32 -4.39,4.65 -6.59,6.97 -4.39,4.65 -8.91,9.16 -13.47,13.65 -2.41,2.38 -6.77,2.59 -9.14,0 -2.38,-2.59 -2.54,-6.57 0,-9.14 4.49,-4.56 9,-9.07 13.65,-13.47"
         style="fill:#fab791;fill-opacity:1;fill-rule:nonzero;stroke:none"
         id="path38" />
      <path
         d="m 3103.42,3678.48 c 3.36,-0.77 6.07,1.02 7.25,4.11 2.4,6.31 4.98,12.58 7.19,18.96 1.08,3.13 2.07,6.29 3.11,9.43 1.14,3.47 1.33,6.99 1.64,10.62 0.16,1.84 -1.43,3.64 -3.12,4.1 -1.91,0.53 -3.74,-0.38 -4.81,-1.95 -0.95,-1.4 -1.91,-2.8 -2.86,-4.19 -1.14,-1.66 -1.79,-3.5 -2.51,-5.37 -1.19,-3.09 -2.44,-6.18 -3.58,-9.29 -2.33,-6.32 -4.29,-12.79 -6.43,-19.18 -0.97,-2.92 1.13,-6.56 4.12,-7.24"
         style="fill:#fab791;fill-opacity:1;fill-rule:nonzero;stroke:none"
         id="path40" />
      <path
         d="m 3027.89,2040.19 c -4.64,-43.73 -14.81,-87.29 -31.3,-128.1 -13.91,-34.41 -34.03,-64.2 -54.24,-94.63 -0.24,6.88 -0.39,13.77 -0.66,20.65 -1.84,46.02 -4.3,92.02 -7.24,137.99 -1.52,23.83 -3.22,47.64 -4.93,71.46 -1.55,21.59 -0.86,44.73 -7.5,65.48 28.04,49.77 52.92,101.67 76.53,153.12 4.7,10.24 9.21,20.56 13.8,30.84 12.29,-85.25 24.74,-170.11 15.54,-256.81"
         style="fill:#fab791;fill-opacity:1;fill-rule:nonzero;stroke:none"
         id="path42" />
      <path
         d="m 3185.62,2885.29 c -10.12,-46.51 -20.25,-93.02 -30.37,-139.54 -8.91,-40.9 -16.79,-82.21 -28,-122.56 -5.76,-20.74 -12.68,-41.1 -21.72,-60.65 -4.64,-10.03 -9.71,-19.81 -15.31,-29.35 -4.7,-8 -10.53,-15.42 -14.85,-23.61 -1.17,-1.17 -2.15,-2.64 -2.81,-4.48 -16.96,-47.29 -35.16,-94.11 -54.34,-140.53 -7.35,-0.35 -14.53,-5.18 -13.42,-13.64 0.62,-4.69 1.27,-9.37 1.91,-14.05 -9.2,-21.65 -18.57,-43.21 -28.27,-64.64 -22.46,-49.64 -46.72,-98.45 -70.35,-147.54 -4.15,-0.25 -7.94,-2.59 -9.05,-7.9 -1.02,-4.94 -1.6,-9.87 -1.86,-14.79 -8.71,-18.35 -17.28,-36.76 -25.55,-55.3 -2.16,-4.85 4.16,-8.75 7.21,-4.21 6.65,9.88 13.08,19.95 19.37,30.12 0.44,-4.93 0.91,-9.88 1.29,-14.87 1.62,-21.25 3.21,-42.51 4.73,-63.78 2.92,-40.86 5.81,-81.73 8.15,-122.63 4.7,-82.49 7.52,-165.11 6,-247.73 -2.95,-160.29 -21.04,-321.08 -66.32,-475.23 -24.69,-84.08 -55.48,-167.15 -92.24,-246.7 -3,-6.489 6.33,-12.231 9.75,-5.7 73.23,139.54 123.22,290.23 149.46,445.67 4.62,27.38 8.45,54.85 11.7,82.38 5.26,-46.5 9.97,-93.11 13.24,-139.8 6.59,-94.15 5.47,-189.56 -5.1,-283.38 -20.27,-179.881 -84.37,-350.088 -161.36,-512.741 -14.93,-31.55 -30.7,-62.711 -46.59,-93.82 -0.75,-0.5 -1.43,-1.148 -1.92,-2.09 -43.5,-84.078 -86.73,-168.16 -126.76,-253.988 -19.86,-42.5899 -39.67,-85.1915 -59.26,-127.9024 -9.79,-21.3672 -19.59,-42.7266 -29.38,-64.0977 l -15.24,-33.2304 c -3.43,-7.5 -7.19,-14.1795 -7.81,-21.6915 -8.79,-1.25 -17.54,-2.879 -26.34,-4.25 -17.68,-2.738 -35.4,-5.269 -53.15,-7.519 -34.5,-4.379 -69.11,-7.911 -103.78,-10.579 -67.72,-5.222 -135.69,-7.211 -203.6,-5.972 -137.65,2.492 -275.01,18.582 -409.54,47.781 -71.17,15.4414 -140.89,35.5391 -210.66,56.1484 2.9,8.2618 5.64,16.543 8.29,24.86332 8.82,12.12891 16.94,24.83988 25.08,37.11718 17.34,26.1602 34.09,52.582 50.31,79.4411 31.57,52.27 61.57,105.418 90.4,159.239 57.98,108.211 109.68,219.543 156.67,332.941 12.9,31.129 25.48,62.41 37.7,93.82 6.41,16.45 12.14,33.121 18.27,49.668 4.56,12.321 9.53,24.461 12.82,37.102 102.63,292.61 37.49,615.96 -51.09,903.72 -13.29,43.19 -27.5,86.07 -42.12,128.82 -7.58,22.17 -15.17,44.35 -23.02,66.42 -7.62,21.44 -13.91,44.03 -25.29,63.79 -2.66,4.62 -6.58,6.29 -10.39,6.02 -9.74,17.78 -21.29,34.79 -30.85,52.37 -15.95,29.34 -29.29,60.04 -36.91,92.65 -16.32,69.8 7.27,134.6 35.86,197.63 61.51,135.65 125.94,269.89 192.71,403.02 37.44,74.65 75.06,149.2 113.64,223.28 2.01,3.87 2.08,7.62 0.94,10.86 2.06,3.51 3.18,8.17 5.02,11.74 3.92,7.61 8.5,14.83 14.02,21.38 12.16,14.43 27.42,25.97 43.32,35.95 39.16,24.58 82.1,43.81 122.96,65.36 46.19,24.35 92.4,48.66 138.53,73.12 23.07,12.23 46.13,24.46 69.2,36.69 10.76,5.7 21.52,11.41 32.29,17.12 8.28,4.39 17,8.37 24.94,13.43 4.83,-11.07 9.88,-22.07 15.43,-32.91 35.23,-68.85 87.17,-134.48 150.49,-183.71 -1.1,-0.7 -2.19,-1.41 -3.29,-2.11 -6.24,-4.02 -12.49,-8.04 -18.74,-12.06 -7.94,-5.11 -15.43,-10.6 -22.46,-16.65 -2.76,2.22 -5.68,4.27 -8.67,6.47 -4.99,3.68 -9.89,7.47 -14.75,11.32 -10.11,8.01 -19.73,16.65 -29.31,25.27 -19.31,17.37 -37.47,36.1 -53.39,56.63 -3.89,5.01 -12.07,-1.46 -8.74,-6.75 14.24,-22.64 29.8,-44.42 47.53,-64.47 8.75,-9.89 18.29,-18.99 28.05,-27.87 3.81,-3.47 7.78,-6.75 11.75,-10.04 -8.65,-7.34 -16.09,-16.11 -24.12,-24.19 -11.18,-11.27 -22.6,-22.3 -34.25,-33.09 -22.73,-21.04 -46.01,-41.51 -70.17,-60.89 -24.5,-19.65 -49.85,-38.25 -75.9,-55.77 -17.51,-11.77 -39.19,-22.46 -56.39,-36.54 -1.01,1.11 -2.17,2.1 -3.6,2.75 -64.23,29.25 -124.64,69.53 -174.3,119.83 -6.68,6.77 -15.8,-3.1 -10.18,-10.18 45.76,-57.66 102.49,-104.37 169.28,-135.66 l 0.29,-0.08 c -1.05,-5.14 -1.68,-10.46 -2.75,-15.6 -2.51,-12.01 -5.31,-23.95 -8.42,-35.82 -6.61,-25.2 -15.14,-49.86 -24.84,-74.03 -16.61,-41.38 -38.14,-80.47 -59.51,-119.54 -1.96,0.34 -3.89,0.85 -5.87,1.08 -3.4,0.4 -5.71,-3.13 -5.46,-6.26 -10.15,-1.83 -20.38,-4.94 -29.57,-6.34 -18.66,-2.83 -37.72,-3.84 -56.58,-3.24 -39.31,1.26 -74.88,14.08 -112.99,21.62 -7.29,1.44 -15.52,-8.43 -8.21,-14.09 33.03,-25.53 78.45,-33.37 119.25,-35.68 20.87,-1.18 41.67,-0.09 62.34,2.95 15.99,2.35 35.97,4.81 49.27,15.24 7.33,-4.89 14.8,-9.58 22.14,-14.44 9.45,-6.27 18.6,-12.97 27.54,-19.91 -6.38,-1.13 -12.65,-2.48 -18.5,-3.63 -17.55,-3.46 -35.05,-8.01 -51.85,-14.18 -33.09,-12.15 -63.83,-29.75 -91.81,-51.12 -6.65,-5.07 -0.72,-16.35 6.78,-11.58 28.33,18 58.89,31.37 91.02,40.98 15.66,4.68 31.46,8.65 47.61,11.23 8.01,1.28 16.07,2.2 24.16,2.85 6.75,0.53 13.78,0.31 20.54,1.23 8.84,-8.48 17.43,-17.22 25.42,-26.48 5.21,-6.05 10.11,-12.32 14.99,-18.62 -0.04,-3.88 0.17,-7.76 0.44,-11.11 0.73,-9.36 1.57,-18.61 2.88,-27.9 1.24,-8.77 2.49,-17.54 3.73,-26.31 1.34,-9.51 1.02,-21.36 7.93,-28.64 5.35,-5.63 16.43,-4.75 20.02,2.58 4.73,9.68 0.81,21.29 -0.86,31.5 -1.43,8.72 -2.86,17.44 -4.29,26.15 -0.75,4.59 -1.64,9.13 -2.59,13.65 2.39,0.76 4.45,2.41 5.04,5.07 0.77,3.5 0.42,7.07 -0.4,10.65 26.64,-13.14 55.94,-21.2 85.62,-24.36 6.36,-0.68 11.93,4.91 13.36,10.86 41.94,13.29 73.99,54.52 101.18,87.02 19.89,23.78 38.99,48.23 57.39,73.19 -3.32,-7.17 -6.51,-14.41 -9.97,-21.52 -37.18,-76.37 -86.53,-148.89 -161.89,-191.83 -46.13,-26.28 -98.84,-39.75 -151.28,-45.85 -26.42,-3.06 -53.04,-4.57 -79.62,-5.37 -27.35,-0.83 -54.55,-4.18 -81.94,-5.02 -5.84,-0.18 -5.74,-8.57 0,-9 24.35,-1.8 48.66,-5.07 73.04,-6.2 23.53,-1.08 47.49,0.23 70.96,2.05 46.4,3.59 93.29,11.26 136.7,28.58 80.59,32.16 139.41,94.14 183.17,167.63 46.61,78.28 76.85,165.47 109.69,250.06 34.25,88.24 68.68,176.41 102.65,264.76 4.78,1.82 6.83,7.56 4.68,12.12 5.06,13.19 10.21,26.34 15.24,39.54 21.29,55.84 39.39,114.78 66.74,168.02 17.97,34.97 43.54,67.5 78.17,84.84 -4.04,-10.05 -6.99,-20.68 -9.82,-31.14 -15.67,-57.93 -27.5,-116.64 -36.05,-175.98 -0.59,-0.89 -1.01,-1.9 -1.1,-2.96 -0.13,-1.47 -0.01,-2.93 0.02,-4.39 -0.69,-4.96 -1.53,-9.9 -2.17,-14.87 -0.58,-4.53 3.94,-6.92 7.86,-6.46 5.04,-10.16 12.57,-19.46 19.93,-26.81 14.6,-14.57 32.44,-26.02 51.26,-34.32 22.26,-9.83 46.04,-15.27 69.86,-19.77 12.95,-2.45 25.96,-4.59 38.91,-7.03 11.89,-2.23 25.17,-7.4 37.15,-4.47 2.19,0.53 3.96,1.89 5.3,3.6 5.45,-1.3 12.11,0.64 14.86,7.16 22.83,54.18 40.34,110.47 52.02,168.1 2.77,13.68 5.55,27.9 7.37,42.16 12.8,-28.88 11.85,-59.75 6.14,-91.94 -7.79,-43.94 -18.25,-87.53 -27.75,-131.13"
         style="fill:#fab791;fill-opacity:1;fill-rule:nonzero;stroke:none"
         id="path44" />
      <path
         d="m 2658.9,2670.94 c -7.45,-7.21 -14.91,-14.42 -22.37,-21.62 -12.21,-11.81 -23.11,-24.62 -34.14,-37.42 -4.08,2.37 -10,1.78 -13.63,-1.38 -9.4,-8.21 -11.85,-24.09 -16.27,-35.5 -4.97,-12.85 -10.31,-25.53 -16.03,-38.06 -11.73,-25.69 -24.54,-50.81 -39.16,-74.99 -25.65,-42.41 -55.76,-82.34 -87.8,-120.25 -1.84,-0.93 -3.72,-1.8 -5.62,-2.65 l -0.32,0.08 c -43.37,4.63 -83.9,22.12 -120.44,45.42 -10.19,11.15 -20.89,21.81 -32.46,31.54 -21.99,18.51 -47.52,37.75 -75.5,47.64 24.89,34.45 44.1,72.43 60.57,111.83 10.06,24.07 18.59,48.67 26.47,73.53 4.17,13.15 7.96,26.42 11.36,39.78 2.25,8.83 6.36,19.39 6.23,29.03 21.1,7.94 41.28,22.93 58.93,34.35 3.11,2.01 6.1,4.19 9.19,6.23 22.94,-34.59 49.35,-65.28 81.61,-91.74 16.41,-13.46 33.63,-25.96 51.63,-37.22 17.48,-10.94 38.69,-26.3 59.6,-28.24 8.9,-0.83 13.21,11.58 7.18,17.32 -7.56,7.2 -17.02,10.87 -26.21,15.61 -9.22,4.76 -18.28,9.82 -27.16,15.18 -17.8,10.72 -34.95,22.59 -51.12,35.65 -30.02,24.28 -58.62,51.88 -83.29,81.75 19.39,13.2 38.5,26.79 57.04,41.17 25.09,19.46 49.53,39.82 72.66,61.58 11.56,10.87 22.89,21.99 33.99,33.34 9.36,9.58 19.61,19.12 27.02,30.4 l 2.3,-1.01 c 5.85,-1.98 12.17,2.51 14.11,8.09 8.74,3.57 17.16,7.84 25.41,12.74 6.39,3.78 12.77,7.57 19.16,11.35 2.98,1.77 5.96,3.53 8.94,5.3 1.18,0.7 2.45,1.4 3.73,2.11 37.29,-25.69 78.07,-45.5 121.37,-57.22 -23.4,-59.97 -46.72,-119.96 -69.99,-179.99 -5.9,-15.22 -11.69,-30.51 -17.47,-45.83 -2.98,-1.8 -5.47,-4.33 -8.33,-7.09 -3.73,-3.6 -7.46,-7.21 -11.19,-10.81"
         style="fill:#f57d7a;fill-opacity:1;fill-rule:nonzero;stroke:none"
         id="path46" />
      <path
         d="m 2660.37,2640.93 c -7.56,-20.05 -15.27,-40.03 -23.12,-59.97 -0.94,-0.42 -1.87,-0.92 -2.72,-1.63 -10.87,-9.11 -17.76,-24.21 -25.68,-35.91 -8.59,-12.67 -17.37,-25.22 -26.35,-37.62 -18.25,-25.21 -37.33,-49.8 -57.21,-73.75 -2.08,-2.52 -4.19,-5.06 -6.31,-7.63 5.94,8.69 11.83,17.41 17.4,26.4 15.24,24.56 29.54,49.8 42.02,75.88 6.23,13.02 12.05,26.22 17.57,39.55 3.88,9.35 9.32,19.22 10.79,29.33 15.51,12.35 31.24,24.16 45.68,37.83 l 7.93,7.52"
         style="fill:#f57d7a;fill-opacity:1;fill-rule:nonzero;stroke:none"
         id="path48" />
      <path
         d="m 2972.75,3211.24 c 3.05,6.28 6.93,11.17 11.36,15.12 1.95,0.36 3.88,0.78 5.88,1.06 4.77,0.66 7.09,3.68 7.69,7.22 8.24,3.25 17.55,4.58 27.6,4.42 22.98,-0.36 46.66,-4.87 69.06,-9.76 21.92,-4.8 43.93,-12.21 61.47,-26.69 40.36,-33.32 28.25,-87.15 19.66,-132.19 -10.58,-55.43 -26.92,-109.56 -48.06,-161.87 -7.86,4.48 -17.11,5.51 -26.19,7.22 -11.66,2.2 -23.37,4.13 -35.05,6.2 -22.76,4.05 -45.6,8.58 -67.33,16.66 -17.37,6.46 -34.34,15.37 -48.36,27.62 -12.75,11.14 -20.88,24.94 -30.93,37.92 8.33,45.01 18.32,89.77 30.3,133.94 6.54,24.13 11.95,50.54 22.9,73.13"
         style="fill:#fab791;fill-opacity:1;fill-rule:nonzero;stroke:none"
         id="path50" />
      <path
         d="m 3899.63,3692.99 c -0.21,-11.84 -0.84,-23.57 -1.68,-35.3 -24.72,1.26 -49.44,2.93 -73.85,1.15 2.52,17.08 3.88,34.36 3.15,51.75 -0.42,9.32 -13.41,11.21 -16.24,2.2 -8.69,-27.76 -13.09,-56.15 -18.96,-84.53 -5.97,-28.39 -12.88,-56.57 -20.84,-84.43 -16.13,-56.04 -36.25,-110.82 -60.55,-163.83 -48.81,-106.52 -113.86,-202.47 -188.33,-292.56 -41.38,-50.07 -88.41,-94.79 -135.44,-139.52 -3.04,-2.93 1.04,-8.49 4.71,-5.97 24.62,16.76 47.66,34.15 69.76,54.26 21.37,19.48 42.11,39.91 62.54,60.44 41.37,41.79 78.45,88.61 111.45,137.32 16.55,24.2 32.05,49.13 46.72,74.58 26.5,-12.57 55.3,-19.27 83.9,-25.14 -18.64,-32.68 -38.86,-64.31 -60.65,-94.69 -54.47,-75.52 -121.4,-143.29 -200.59,-192.84 -44.62,-27.97 -92.6,-49.86 -143.09,-64.94 -17.59,-5.24 -35.61,-9.74 -53.73,-13.1 -8.49,-1.67 -16.97,-2.93 -25.56,-4.08 -12.47,-1.68 -25.04,-2.52 -37.61,-3.35 -14.24,-0.95 -27.96,-3.77 -42.21,-5.24 l 1.57,6.91 c 10.37,47.45 22.52,94.8 31.22,142.56 7.43,41.17 11,89.88 -17.91,124.02 -2.41,2.83 -5.35,3.78 -8.28,3.57 -0.73,26.18 -7.85,51.22 -28.07,71.85 -36.03,36.77 -92.91,45.15 -141.94,49.34 -3.77,0.31 -7.64,0.52 -11.52,0.52 -14.77,0.42 -29.54,-1.46 -42.52,-8.38 -3.57,-1.67 -6.92,-3.87 -10.06,-6.49 -1.26,-0.94 -2.3,-2.1 -3.35,-3.14 -87.99,-22 -123.4,-121.62 -153.35,-197.45 -15.19,-38.45 -30.17,-76.78 -45.15,-115.23 -51.22,20.95 -99.72,47.77 -142.14,83.8 -45.67,38.65 -84.85,85.37 -115.43,136.8 -70.29,117.95 -91.66,259.04 -78.36,394.38 1.78,18.33 4.19,36.66 7.44,54.89 v 0.21 c 40.12,238.82 187.6,460.68 393.64,587.53 59.92,36.87 124.34,65.88 191.48,86.2 53.53,16.35 108.63,27.03 164.56,31.74 l -0.21,-1.15 c 0.11,-8.17 5.76,-11.31 9.85,-17.39 3.45,-5.24 4.92,-11.73 6.18,-17.8 3.87,-17.92 5.24,-36.67 5.34,-55 0.11,-37.08 -4.71,-74.26 -17.07,-109.25 -2.31,-6.39 8.06,-10.89 10.99,-4.61 18.34,38.86 29.54,79.72 29.96,122.87 0.11,19.69 -0.94,40.54 -6.07,59.71 -1.78,6.91 -5.97,17.28 -11.94,24.4 16.44,0.84 32.99,1.26 49.44,1.05 4.5,-0.1 7.96,1.36 10.58,3.56 11.94,-5.86 22.41,-13.72 30.48,-25.14 12.46,-17.59 18.54,-38.02 19.38,-59.5 1.04,-26.71 -4.61,-53 -10.48,-78.97 -5.86,-26.19 -11.83,-52.27 -17.81,-78.46 -23.77,-104.85 -47.55,-209.81 -71.33,-314.77 -13.62,-59.91 -28.59,-119.72 -41.9,-179.74 v -0.21 c -0.42,-1.89 -0.42,-3.67 -0.21,-5.24 -36.24,-29.96 -72.8,-59.6 -111.03,-86.73 -2.2,-1.57 -4.4,-3.14 -6.7,-4.51 -9.95,-6.91 -20.12,-13.61 -30.38,-20.11 6.39,7.75 12.05,15.82 17.07,24.51 11.63,20.32 20.95,42.53 26.5,65.26 2.31,9.32 8.38,28.07 -2.3,34.46 -12.05,7.02 -17.39,-11.21 -19.06,-19.38 -4.61,-22.2 -11.95,-43.78 -22.42,-63.89 -5.97,-11.42 -12.78,-22.52 -19.69,-33.31 -2.31,-3.46 -14.56,-19.8 -11.11,-25.98 -11.83,-6.6 -23.88,-12.78 -36.24,-18.33 -18.85,-8.48 -38.44,-15.4 -58.34,-20.53 -16.03,-4.29 -32.48,-8.28 -48.71,-11.73 -3.67,-0.84 -7.23,-1.57 -10.89,-2.31 -11.84,-2.3 -8.07,-19.06 2.72,-19.9 17.49,-1.26 32.99,-1.36 50.28,2.31 17.91,3.77 35.51,9.11 52.58,15.81 33.21,12.99 64.53,29.86 94.38,49.34 62.85,40.96 119.83,90.71 178.07,137.74 130.1,104.96 262.92,206.46 398.46,304.09 37.08,26.71 73.85,54.78 112.61,78.97 19.37,12.16 40.64,22 62.63,26.19 2.2,-14.66 6.81,-29.43 9.12,-43.78 3.03,-19.38 4.92,-38.97 6.07,-58.56 1.15,-18.75 1.26,-37.5 0.42,-56.25 -0.94,-20.11 -1.05,-40.22 -3.77,-60.12 -1.26,-9.64 12.36,-14.14 15.08,-4.19 4.93,19.17 10.48,38.13 12.78,57.82 2.41,20.74 3.67,41.79 3.46,62.74 -0.1,20.12 -1.89,40.02 -4.71,59.92 -1.99,13.83 -3.67,29.54 -7.75,43.89 1.15,-0.11 2.3,-0.11 3.45,-0.32 -0.21,-1.78 0,-3.87 0.63,-6.07 6.81,-23.88 17.49,-46.51 25.24,-70.18 7.86,-23.68 14.25,-47.87 19.17,-72.38 9.54,-47.56 13.31,-96.16 12.47,-144.66"
         style="fill:#f9ae56;fill-opacity:1;fill-rule:nonzero;stroke:none"
         id="path52" />
      <path
         d="m 4249.91,3690.9 c -9.22,-54.26 -16.76,-108.73 -27.55,-162.68 -12.15,-61.07 -26.82,-121.51 -43.26,-181.42 -3.98,-14.56 -7.13,-32.26 -13.41,-47.87 -3.88,-9.53 -8.91,-18.33 -15.92,-25.04 -19.91,-18.95 -54.89,-18.01 -80.45,-20 -61.07,-4.72 -122.56,-4.51 -183.62,0.73 -35.09,3.04 -69.97,7.33 -104.65,13.51 -30.06,5.35 -60.02,12.68 -90.39,15.92 38.54,69.03 70.39,141.83 94.58,217.15 1.37,3.98 2.62,7.96 3.88,11.94 9.85,31.63 18.33,63.69 25.35,96.05 2.3,10.37 4.5,20.85 6.49,31.32 35.83,-12.57 77.31,-12.15 114.81,-12.25 39.59,-0.11 78.87,2.93 117.94,8.69 38.55,5.66 76.57,14.04 113.86,25.14 19.38,5.76 38.55,12.26 57.4,19.59 7.55,2.93 16.35,5.76 24.94,9.22"
         style="fill:#fdddb9;fill-opacity:1;fill-rule:nonzero;stroke:none"
         id="path54" />
      <path
         d="m 3618.83,3270.06 c 4.88,9.31 9.74,18.54 15.8,27.16 3,4.26 5.83,8.45 8.01,13.19 1.5,3.24 3.25,6.47 4.09,9.95 0.79,3.21 1.06,6.51 0.2,9.74 -0.59,1.42 -1.19,2.84 -1.79,4.25 -2.57,3.38 -2.99,3.9 -1.25,1.57 -3.32,4.63 -7.42,6.05 -12.92,5.25 3,0.53 2.3,0.46 -2.1,-0.19 -1.45,-0.54 -2.88,-1.13 -4.29,-1.78 -2.62,-1.54 -4.54,-3.83 -6.24,-6.28 -2.03,-2.95 -3.11,-6.48 -4.43,-9.79 -2,-5.04 -3.18,-10.08 -4.24,-15.39 -2.07,-10.31 -5.41,-20.18 -8.79,-30.11 -3.58,-10.51 12.79,-17.41 17.95,-7.57"
         style="fill:#fab791;fill-opacity:1;fill-rule:nonzero;stroke:none"
         id="path56" />
      <path
         d="m 3669.47,3391.84 c 2.38,-1.26 5.25,-1.89 7.88,-1.03 2.43,0.78 4.96,2.32 6.12,4.7 2.33,4.79 4.84,9.54 7,14.42 1.35,3.03 2.42,6.19 3.57,9.3 0.66,1.78 1.26,3.33 1.2,5.32 -0.07,2.16 -0.77,4.17 -1.79,6.05 -1.46,2.66 -4.38,3.31 -7.12,2.89 -1.56,-0.24 -3.18,-0.88 -4.51,-1.7 -2.13,-1.32 -3.33,-3.41 -4.65,-5.45 -1.39,-2.16 -2.91,-4.27 -4.18,-6.5 -2.58,-4.55 -4.8,-9.35 -7.19,-14.01 -1.25,-2.44 -1.77,-5.17 -1.03,-7.88 0.65,-2.37 2.49,-4.94 4.7,-6.11"
         style="fill:#fab791;fill-opacity:1;fill-rule:nonzero;stroke:none"
         id="path58" />
      <path
         d="m 2492.62,3567.02 c -2.96,1.29 -4.83,1.48 -7.98,1.04 -3.64,-0.51 -6.09,-4.11 -7.22,-7.22 -4.54,-12.45 -5.17,-25.34 -6.02,-38.46 -0.88,-13.46 -1.25,-26.88 -0.89,-40.36 0.7,-26.32 5.42,-51.73 9.88,-77.62 1.04,-5.99 10.91,-4.6 10.61,1.44 -1.23,25.34 0.78,50.85 2.05,76.18 0.63,12.46 1.38,24.94 2.45,37.37 1.11,12.99 3.33,25.65 2.24,38.69 -0.28,3.37 -1.7,7.45 -5.12,8.94"
         style="fill:#fab791;fill-opacity:1;fill-rule:nonzero;stroke:none"
         id="path60" />
      <path
         d="m 2519.04,3676.54 c -2.25,0.95 -5.15,0.55 -6.88,-1.3 -1.16,-1.23 -2.4,-2.44 -3.24,-3.92 -0.87,-1.52 -1.39,-3.4 -2.03,-5.05 l -2.96,-7.57 c -1.97,-5.05 -3.84,-10.13 -5.75,-15.2 -1.48,-3.93 1.65,-8.96 5.6,-9.87 4.49,-1.02 8.38,1.36 9.87,5.61 1.76,5 3.56,10 5.25,15.03 0.84,2.47 1.67,4.94 2.5,7.4 0.43,1.27 0.97,2.55 1.29,3.84 0.45,1.76 0.32,3.5 0.23,5.28 -0.14,2.55 -1.48,4.74 -3.88,5.75"
         style="fill:#fab791;fill-opacity:1;fill-rule:nonzero;stroke:none"
         id="path62" />
      <path
         d="m 3175.81,4004.3 c 3.64,-2.13 9.03,-1.05 11.92,1.88 1.72,1.74 3.09,3.84 4.44,5.87 1.94,2.93 3.56,5.88 5.13,9.03 1.65,3.33 3.04,6.79 4.5,10.2 0.95,2.2 2.15,4.46 2.87,6.74 0.55,1.7 0.91,3.49 1.36,5.23 0.87,3.35 -0.54,7.47 -3.72,9.15 -3.07,1.62 -7.36,1.47 -9.82,-1.27 -5.24,-5.84 -9.74,-12.43 -13.68,-19.24 -1.76,-3.05 -3.33,-6.03 -4.71,-9.28 -0.96,-2.28 -2.08,-4.53 -2.65,-6.96 -0.95,-4.07 0.58,-9.13 4.36,-11.35"
         style="fill:#fab791;fill-opacity:1;fill-rule:nonzero;stroke:none"
         id="path64" />
      <path
         d="m 2578.71,3158.13 c -5.46,8.35 -10.32,17.04 -15.42,25.62 -4.92,8.29 -9.36,16.84 -13.68,25.46 -4.58,9.15 -9.78,17.78 -13.71,27.27 -3.07,7.42 -14.13,4.85 -12.31,-3.39 2.18,-9.91 4.02,-20.23 7.12,-29.9 3.32,-10.33 7.83,-20.37 12.37,-30.21 4.3,-9.32 9.65,-18.17 15.17,-26.82 2.99,-4.68 6.24,-9.02 9.95,-13.18 3.71,-4.16 7.42,-9.28 13.16,-10.46 5.62,-1.15 10.27,2.43 10.67,8.13 0.37,5.35 -2.95,9.79 -5.43,14.28 -2.5,4.52 -5.05,8.87 -7.89,13.2"
         style="fill:#fab791;fill-opacity:1;fill-rule:nonzero;stroke:none"
         id="path66" />
      <path
         d="m 2686.37,3041.3 c -1.17,1.17 -2.4,2.27 -3.6,3.4 l -6.98,6.6 c -2.25,2.13 -4.45,4.34 -6.86,6.31 -2.56,2.09 -5.13,4.19 -7.69,6.29 -1.66,1.36 -3.33,2.3 -5.56,2.3 -1.92,0 -4.22,-0.85 -5.55,-2.3 -2.64,-2.88 -3.4,-8.33 0,-11.11 5.42,-4.43 10.83,-8.78 16.56,-12.82 2.61,-1.83 5.21,-3.67 7.82,-5.51 1.26,-0.89 2.52,-1.78 3.79,-2.67 1.63,-1.15 3.57,-1.79 5.41,-2.56 1.89,-0.8 4.37,0.41 5.51,1.87 1.21,1.57 1.58,4.09 0.4,5.82 -1.01,1.5 -1.97,3.09 -3.25,4.38"
         style="fill:#fab791;fill-opacity:1;fill-rule:nonzero;stroke:none"
         id="path68" />
      <path
         d="m 3245.06,3543.42 c -3.39,0.94 -6.55,0.21 -9.68,-1.19 l -2.62,-1.24 c -3.93,-1.87 -7.14,-5.12 -9.96,-8.39 -2.35,-2.71 -4.7,-5.42 -7.05,-8.13 -3.04,-3.5 -5.69,-7.32 -8.56,-10.96 -0.73,-0.92 0.53,0.7 0.51,0.7 l -1.2,-1.41 -1.92,-2.27 c -1.36,-1.61 -2.72,-3.21 -4.08,-4.82 -2.95,-3.49 -3.62,-8.16 -0.71,-11.93 2.53,-3.27 8.06,-5.02 11.72,-2.34 5.57,4.08 11.19,8 16.94,11.83 2.91,1.95 5.66,4.18 8.46,6.29 3.49,2.61 7.08,5.09 10.15,8.21 1.87,1.9 3.19,4.07 4.48,6.37 1.04,1.86 1.87,3.7 2.15,5.82 0.38,2.77 -0.09,5.65 -1.5,8.11 -1.51,2.66 -4.2,4.54 -7.13,5.35"
         style="fill:#fab791;fill-opacity:1;fill-rule:nonzero;stroke:none"
         id="path70" />
      <path
         d="m 3326.96,3615.9 c -8.53,0 -8.54,-13.25 0,-13.25 8.53,0 8.55,13.25 0,13.25"
         style="fill:#fab791;fill-opacity:1;fill-rule:nonzero;stroke:none"
         id="path72" />
      <path
         d="m 3303.46,3559.39 c -1.58,-1.15 -3.2,-2.21 -4.46,-3.72 -1.08,-1.3 -2.16,-2.6 -3.24,-3.9 -2.29,-2.76 -4.58,-5.52 -6.87,-8.28 l -13.54,-16.32 c -1.69,-2.04 -2,-4.95 0,-6.95 1.75,-1.75 5.23,-2.04 6.94,0 4.54,5.42 9.07,10.84 13.61,16.26 l 6.7,8.01 c 1.08,1.29 2.17,2.59 3.25,3.88 1.43,1.7 2.37,3.33 3.32,5.31 0.81,1.69 0.73,3.67 -0.65,5.06 -1.22,1.22 -3.58,1.73 -5.06,0.65"
         style="fill:#fab791;fill-opacity:1;fill-rule:nonzero;stroke:none"
         id="path74" />
      <path
         d="m 3276.91,3569.55 c 1.01,1.03 2.02,2.05 3.03,3.08 0.83,0.84 1.68,1.65 2.34,2.64 l 0.99,1.98 c 0.39,0.83 0.71,1.68 0.71,2.61 0,1.14 -0.42,2.22 -1.11,3.12 -1.3,1.68 -3.36,2.31 -5.42,1.85 -0.9,-0.2 -1.77,-0.37 -2.62,-0.73 -0.91,-0.38 -1.68,-0.86 -2.52,-1.38 -1.25,-0.78 -2.5,-1.56 -3.76,-2.34 -1.02,-0.64 -2.09,-1.26 -2.99,-2.08 l -1.52,-1.63 -1.5,-1.64 c -0.86,-0.96 -1.42,-1.9 -1.97,-3.02 -0.43,-0.89 -0.77,-1.85 -0.77,-2.85 0,-1.26 0.46,-2.44 1.22,-3.42 1.41,-1.83 3.68,-2.55 5.93,-2.03 1.15,0.27 2.22,0.56 3.28,1.14 l 1.93,1.1 1.91,1.11 c 1.08,0.7 1.95,1.58 2.84,2.49"
         style="fill:#fab791;fill-opacity:1;fill-rule:nonzero;stroke:none"
         id="path76" />
      <path
         d="m 3386.25,3657.86 c -1.35,1.24 -3.75,1.87 -5.36,0.7 -4.59,-3.37 -8.87,-7.09 -13.22,-10.76 -1.98,-1.66 -3.61,-3.93 -5.33,-5.87 -1.86,-2.09 -3.73,-4.19 -5.59,-6.28 -2.44,-2.75 -2.91,-7.28 0,-9.96 2.68,-2.45 7.34,-2.93 9.95,0 1.81,2.04 3.62,4.07 5.43,6.11 2.08,2.34 4.42,4.61 6.2,7.18 3.04,4.38 5.99,8.88 8.61,13.53 0.93,1.65 0.76,4.02 -0.69,5.35"
         style="fill:#fab791;fill-opacity:1;fill-rule:nonzero;stroke:none"
         id="path78" />
      <path
         d="m 2624.86,2998.47 c -69.7,53.83 -125.09,124.46 -161.02,204.76 -7.78,17.38 -36.04,8.38 -35.29,-9.55 1.68,-39.94 15.95,-77.29 27.35,-115.13 10.56,-35.03 19.23,-73.54 2.59,-108.19 -16.44,-34.24 -48.23,-58.69 -77,-82.13 -30.64,-24.96 -62.97,-50.62 -100.07,-65.27 -48.74,-19.23 -95.92,-9.36 -144.83,3.76 -24.14,6.48 -34.07,-30.03 -10.29,-37.34 78.55,-24.12 80.72,-122.16 58.67,-186.38 -0.66,-1.93 -1.43,-3.84 -2.14,-5.76 -29.54,-55.79 -76.68,-102.22 -135.6,-128.66 -16.73,-7.51 -8.92,-29.73 4.58,-35.01 46.04,-18 97.18,7.81 125.93,44.31 33.06,41.97 43.95,95.99 67.4,143.11 48.18,96.81 127.79,173.83 214.06,237.14 53.31,39.12 109.52,74.05 165.66,108.93 12.66,7.86 10.65,23.18 0,31.41"
         style="fill:#f57d7a;fill-opacity:1;fill-rule:nonzero;stroke:none"
         id="path80" />
      <path
         d="m 2581.27,2495.24 c -44.26,-59.25 -95.91,-131.52 -176.44,-138.67 -80.64,-7.15 -130.97,76.69 -201.19,101.42 -36.87,12.98 -79.54,8.93 -109.21,-17.76 l -1.26,0.29 c -10.88,1.9 -15.04,-12.76 -4.57,-16.58 l 1.72,-0.73 c 0.77,-2.52 2.05,-4.84 4.02,-6.54 26.82,-23.14 46.85,-51.09 60.57,-82.47 0.16,-14.74 -3.3,-29.81 -11.45,-44.18 -11.55,-20.37 -39.12,-41.33 -23.24,-67.3 13.79,-22.55 51.26,-21.51 74.1,-22.63 117.88,-5.77 234.6,40.87 316.32,125.87 43.34,45.08 75.97,99.4 95.76,158.69 5.32,15.93 -16.49,22.16 -25.13,10.59"
         style="fill:#f57d7a;fill-opacity:1;fill-rule:nonzero;stroke:none"
         id="path82" />
      <path
         d="m 2964.48,3244.51 c -77.51,-26.13 -109.09,-117.41 -137.36,-185.66 -20.16,-48.69 -40.33,-97.37 -60.49,-146.05 -9.92,-23.94 -19.83,-47.89 -29.75,-71.83 -10.18,-24.58 -21.83,-48.87 -25.31,-75.37 -0.81,-6.22 4.42,-8.46 9.31,-7.69 -14.68,-40.91 -28.61,-82.08 -41.6,-123.52 -3.66,-10.23 -7.3,-20.48 -11,-30.7 -27.67,-76.42 -53.46,-157.69 -97.75,-226.44 -44.19,-68.58 -113.22,-105.87 -189.53,-129.21 -55.25,-16.9 -111.96,-28.19 -169.24,-34.37 -11.64,-0.22 -23.29,-0.27 -34.95,0.07 -4.24,0.12 -7.91,-1.43 -10.76,-3.93 -28.3,-1.66 -56.69,-2.18 -85.07,-1.3 -16.16,0.5 -21.57,-17.32 -14.21,-28.54 -1.82,-4.68 -0.37,-10.78 5.86,-13.09 11.21,-4.17 22.58,-7.89 34.07,-11.24 40.01,-17.47 84.56,-23.07 128.39,-20.1 37.44,-1.17 74.99,1.47 111.73,8.36 90.63,16.98 172.13,62.96 231.6,133.65 58.96,70.08 95.78,155.11 127.56,240.15 38.86,103.96 74.83,209.07 112.03,313.64 44.15,124.08 88.31,248.17 132.46,372.25 l 0.56,2.3 c 7.11,6.07 14.73,11.56 22.86,16.29 11.68,6.8 4.01,26.86 -9.41,22.33"
         style="fill:#f57d7a;fill-opacity:1;fill-rule:nonzero;stroke:none"
         id="path84" />
      <path
         d="m 3010.33,2284.01 c -6.79,8.94 -25.29,7.65 -29.23,-5.46 -4.42,-14.72 -8.46,-29.58 -12.18,-44.52 -7.57,-19.07 -14.87,-38.35 -21.43,-57.84 -11.14,-4.1 -18.11,-26.45 -21.7,-35.06 -6.69,-16.04 -11.3,-32.83 -14.18,-49.97 -2.88,-17.16 -4.16,-34.38 -3.58,-51.79 0.45,-13.47 0.14,-31.62 9.73,-42.24 0.97,-55.86 4.57,-111.74 7.19,-167.53 0.45,-9.51 6.26,-14.69 12.93,-15.85 v -0.11 c -0.4,-8.81 13.88,-10.98 15.59,-2.11 0.66,3.39 1.4,6.74 2.12,10.09 1.41,2.23 2.45,4.86 2.84,7.98 0.45,3.7 0.9,7.41 1.36,11.12 1.95,8.9 3.76,17.83 4.98,27.02 2.06,15.56 4.12,31.11 6.18,46.67 3.46,2.89 5.68,7.04 5.25,12.03 -0.55,6.47 -0.79,12.92 -1.2,19.38 4.03,31.5 7.85,63.02 11.76,94.53 9.57,77.27 19.36,154.53 28.33,231.87 0.66,5.68 -1.43,9.56 -4.76,11.79"
         style="fill:#f57d7a;fill-opacity:1;fill-rule:nonzero;stroke:none"
         id="path86" />
      <path
         d="m 2457.75,3191.99 c -58.07,-18.48 -114.52,-41.77 -170.18,-66.5 -53.37,-23.71 -106.76,-48.12 -158.67,-74.9 -46.92,-24.21 -90.27,-53.92 -121.66,-97.04 -28.34,-38.92 -45.15,-85 -60.58,-130.19 -8.84,-25.89 -17.25,-51.95 -27.26,-77.42 -1.12,-2.86 -2.38,-5.67 -3.56,-8.51 -31.62,-57.72 -62.67,-115.77 -92.67,-174.36 -35.7,-69.72 -70.51,-139.97 -103.34,-211.09 -30.96,-67.09 -59.32,-138.6 -59.84,-213.59 -0.24,-34.18 5.43,-68.62 18.24,-100.38 12.41,-30.79 31.22,-63.05 61.15,-79.37 6.57,-3.58 16.44,4.24 11.2,11.2 -18.09,23.98 -36.65,46.57 -47.32,75.08 -10.66,28.52 -15.42,59.1 -15.28,89.5 0.34,71.12 28.52,138.82 57.86,202.35 49.15,106.43 102.12,211.19 157.47,314.58 1.08,0.7 2.13,1.53 3.13,2.66 25,28.64 39.89,63.88 52.64,99.57 38.86,70.1 78.79,139.6 119.73,208.51 32.41,10.41 62.43,28.62 92.56,44.13 33.31,17.14 66.56,34.38 99.83,51.6 66.52,34.45 133.02,68.94 199.48,103.5 16.78,8.73 5.23,36.45 -12.93,30.67"
         style="fill:#f57d7a;fill-opacity:1;fill-rule:nonzero;stroke:none"
         id="path88" />
      <path
         d="m 2997.5,3242.92 c -17.31,-6.78 -20.34,-34.34 -24.8,-49.75 -13.2,-45.7 -22.29,-92.33 -28.96,-139.42 -5.17,-36.55 -21.66,-98.7 22.98,-116.91 2.12,-0.86 4.32,-1.05 6.49,-0.81 4.2,-6.08 14.33,-2.61 12.78,5.73 l -0.25,1.61 c 1.48,1.88 2.61,3.96 3.22,6.1 2.21,7.7 -0.93,14.35 -6.45,18.71 -3.39,38.21 0.73,76.29 9.09,114.07 10.16,46.01 25.29,91.29 31.06,138.19 1.87,15.21 -8.69,28.94 -25.16,22.48"
         style="fill:#f57d7a;fill-opacity:1;fill-rule:nonzero;stroke:none"
         id="path90" />
      <path
         d="m 3147.07,3223.8 c -8.52,10.44 -24.21,1.17 -24.77,-10.26 -2.4,-49.42 -5.78,-98.4 -13.71,-147.31 -3.85,-23.8 -8.49,-47.49 -13.63,-71.05 -2.48,-11.39 -5.13,-22.74 -7.96,-34.04 -3.04,-12.13 -7.04,-23.3 -5.33,-35.66 l -0.35,-0.21 c -3.19,-1.57 -2.61,-7.32 1.04,-7.93 1.01,-0.17 1.96,-0.28 2.93,-0.4 5.7,-6.21 16.97,-7.42 22.82,-0.72 2.09,2.38 3.77,4.89 5.19,7.47 l 1.49,1.05 c 11.01,8.45 17.43,21.84 22.21,34.54 11.63,30.9 18.1,64.55 23.64,97 9.17,53.81 24.07,121.42 -13.57,167.52"
         style="fill:#fcd4c5;fill-opacity:1;fill-rule:nonzero;stroke:none"
         id="path92" />
      <path
         d="m 3202.9,3111.66 c -55.45,-192.38 -106.05,-386.26 -158.33,-579.53 -18.01,3.1 -36.03,6.21 -54.05,9.31 -23.72,4.09 -34.31,-30.43 -10.13,-36.76 14.84,-3.89 29.72,-7.64 44.59,-11.42 0.93,-2.25 2.24,-4.32 3.83,-6.11 -50.42,-150.83 -115.41,-296.56 -189.32,-437.28 -4.23,-8.04 7.2,-14.69 12.15,-7.1 46.55,71.39 87.48,145.01 124.13,222.02 35.9,75.42 67.38,152.5 94.9,231.36 2.67,2.12 4.72,5.09 5.85,8.86 41.96,41.75 58.25,103.29 69.98,160.63 19.05,93.16 37.78,186.38 56.68,279.56 10.65,52.51 20.81,105.13 32.63,157.38 4.83,21.36 -26.8,30.28 -32.91,9.08"
         style="fill:#fbc7ad;fill-opacity:1;fill-rule:nonzero;stroke:none"
         id="path94" />
      <path
         d="m 3025.19,2622.58 c -2.15,3.98 -6.13,6.9 -10.5,7.94 -2.32,0.55 -4.7,0.79 -7.05,1.09 1.38,-0.18 2.76,-0.37 4.15,-0.55 -3.71,0.51 -7.49,1.22 -11.21,1.47 -2.71,0.18 -5.42,0.3 -8.12,0.54 -2.59,0.23 -5.18,0.48 -7.77,0.7 -2.65,0.22 -5.46,-0.24 -8.12,-0.32 -3.61,-0.12 -7.37,-2.56 -8.21,-6.25 -0.88,-3.85 0.65,-7.43 3.91,-9.61 2.79,-1.87 5.39,-3.92 8.37,-5.44 2.76,-1.4 5.54,-2.74 8.26,-4.21 2.74,-1.47 5.42,-2.94 8.25,-4.22 2.55,-1.15 5.09,-2.33 7.71,-3.32 5.02,-1.89 10.04,-1.62 14.8,1.09 7.41,4.21 9.45,13.82 5.53,21.09"
         style="fill:#fbc7ad;fill-opacity:1;fill-rule:nonzero;stroke:none"
         id="path96" />
      <path
         d="m 2929.78,1753.63 c -1.11,76.27 -5.3,154.01 -20.26,229.15 -0.07,23.44 -0.37,46.88 -1.09,70.29 -0.24,7.68 -5.27,13.95 -12.3,16.01 -0.13,2.77 -0.19,5.55 -0.33,8.33 -0.55,10.79 -13.63,21.54 -23.99,13.76 -25.93,-19.45 -33.4,-48.94 -35.31,-80.03 -2.51,-41.07 -1.42,-82.64 -1.49,-123.78 -0.12,-85.01 0.54,-170.04 -0.49,-255.05 -1.07,-87.86 -4.09,-175.95 -12.1,-263.51 -7.42,-53.5 -15.42,-106.88 -23.75,-160.12 -3.48,-22.25 -7.1,-44.46 -10.66,-66.69 -19.04,-85.44 -45.79,-168.201 -76.79,-250.01 -3.95,-10.449 12.74,-17.261 17.95,-7.558 11.83,21.976 22.42,44.578 32.12,67.59 6.01,-11.832 23.1,-17.453 30.75,-2.231 62.2,123.669 86.35,260.189 97.13,397.079 3.12,39.62 5.5,79.33 7.44,119.08 7.44,-0.07 14.37,3.92 15.66,13.19 0.23,1.62 0.41,3.25 0.63,4.88 l 0.03,-0.01 -0.01,0.14 c 12.19,89.32 18.17,179.32 16.86,269.49"
         style="fill:#fbc7ad;fill-opacity:1;fill-rule:nonzero;stroke:none"
         id="path98" />
      <path
         d="m 2787.91,1936.43 -0.95,1.86 c -0.54,1.75 -0.94,3.52 -1.55,5.25 -2.27,6.42 -7,11.08 -13.95,12.02 -6.13,0.82 -13.89,-2.02 -16.72,-8.01 -14.8,-31.4 -19.43,-65.95 -12.88,-100.1 1.68,-8.77 4.36,-17.11 11.69,-22.78 9.49,-7.33 23.48,-5.51 31.08,3.68 5.84,7.07 7.95,15.68 9.55,24.53 1.59,8.75 2.64,17.67 2.87,26.57 0.49,18.95 -2.09,39.3 -9.14,56.98"
         style="fill:#fbc7ad;fill-opacity:1;fill-rule:nonzero;stroke:none"
         id="path100" />
      <path
         d="m 2809.49,1816.03 -1.02,2.4 -1.57,2.03 c -1.57,1.58 -3.59,2.48 -5.77,2.77 -4.1,0.55 -7.77,-1.37 -10.02,-4.8 -0.91,-1.4 -1.44,-3.23 -2.1,-4.8 -0.72,-1.74 -1,-3.48 -1.05,-5.37 -0.04,-1.92 -0.09,-3.85 -0.13,-5.78 -0.1,-3.96 -0.37,-7.86 -0.69,-11.81 -0.14,-1.77 0.94,-4.19 2.23,-5.38 1.26,-1.15 2.67,-1.86 4.37,-2.09 3.94,-0.53 7.01,1.85 8.35,5.45 0.77,2.07 1.54,4.14 2.31,6.21 0.89,2.05 1.78,4.09 2.68,6.13 l 0.82,1.87 0.37,0.84 c 0.87,2.01 1.36,3.41 1.49,5.72 l 0.09,2.08 c 0.07,1.54 -0.15,3 -0.36,4.53"
         style="fill:#fbc7ad;fill-opacity:1;fill-rule:nonzero;stroke:none"
         id="path102" />
      <path
         d="m 2954.33,1212.68 c -1.07,70.18 -8.02,139.67 -13.95,209.52 -1.78,21 -29.74,20.41 -32.22,0 -34.74,-285.39 -21.71,-580.591 -122.14,-854.36 -12.97,-35.371 -27.92,-69.981 -45.1,-103.508 -16.91,-33 -34.23,-66.891 -54.41,-97.992 -4.91,-7.57 7.01,-17.129 12.73,-9.82 20.98,26.82 41.25,52.972 57.99,82.722 11.18,19.879 21.5,40.227 31.14,60.899 3.77,-7.68 14.48,-9.801 21.03,-1.051 18.78,25.07 28.96,54.191 39.48,83.519 10.47,29.211 20.18,58.692 29.13,88.411 17.44,57.902 31.97,116.679 43.57,176.031 23.52,120.32 34.61,243.049 32.75,365.629"
         style="fill:#fbc7ad;fill-opacity:1;fill-rule:nonzero;stroke:none"
         id="path104" />
      <path
         d="m 1850.69,606.809 -0.9,-0.899 c 0.01,-0.91 0.03,-1.82 0.05,-2.73 l 0.02,-1.36 0.19,-1.429 h 1.27 l 0.19,1.429 0.02,1.36 c 0.02,0.91 0.04,1.82 0.06,2.73 l -0.9,0.899"
         style="fill:#f57d7a;fill-opacity:1;fill-rule:nonzero;stroke:none"
         id="path106" />
      <path
         d="m 1904.94,1617.97 c -14.64,47.04 -31.79,93.23 -51.09,138.55 -9.36,21.95 -19.26,43.67 -29.73,65.12 -10.77,22.07 -20.23,47.82 -39.6,63.42 -7.32,5.9 -22.96,3.18 -21.51,-8.91 1.26,-10.53 2.79,-18.5 7.73,-27.99 5.35,-10.27 10.65,-20.56 15.86,-30.91 0.48,-0.96 0.94,-1.94 1.42,-2.91 -1.8,-2.33 -2.84,-5.37 -2.36,-8.47 3.44,-22.53 13.05,-41.83 21.74,-62.71 8.58,-20.63 16.96,-41.36 24.8,-62.29 15.41,-41.12 29,-82.92 40.74,-125.24 23.73,-85.56 40.08,-173.24 47.68,-261.73 15.19,-176.92 -1.09,-355.681 -48.22,-526.888 -13.09,-47.52 -29.04,-93.723 -45.11,-140.262 -8.18,-23.691 -17.53,-46.852 -27.28,-69.949 -9.58,-22.68 -17.47,-45.961 -27.03,-68.66 -3.17,-7.512 8.88,-12.039 12.86,-5.422 11.79,19.59 24.52,38.89 34.37,59.531 9.46,19.809 18.07,39.961 26.83,60.09 4.43,10.191 8.7,20.449 12.81,30.769 14.28,28.352 25.33,58.59 35.49,88.379 14,41.051 25.93,82.821 35.99,125.012 20.08,84.219 32.19,170.5 36.89,256.94 9.45,173.47 -11.66,348.6 -63.28,514.53"
         style="fill:#f57d7a;fill-opacity:1;fill-rule:nonzero;stroke:none"
         id="path108" />
      <path
         d="m 3320.79,4151.58 c -5.86,-26.19 -11.83,-52.27 -17.81,-78.46 -11.83,-52.27 -23.67,-104.54 -35.61,-156.91 -11.84,-52.59 -23.78,-105.17 -35.72,-157.86 -13.62,-59.91 -28.59,-119.72 -41.9,-179.74 -41.27,-29.75 -79.61,-63.48 -117.94,-96.69 -3.04,-2.72 -6.08,-5.34 -9.12,-7.96 -46.19,-39.8 -110.72,-108.41 -179.22,-87.88 -6.08,1.78 -11.52,4.08 -16.34,6.81 -32.68,17.81 -39.28,53.73 -31.74,96.99 16.45,96.79 102.76,229.93 121.82,277.27 64.32,160.37 69.97,336.14 72.59,509.91 53.53,16.35 108.63,27.03 164.56,31.74 l -0.21,-1.15 c 0.11,-8.17 5.76,-11.31 9.85,-17.39 3.45,-5.24 4.92,-11.73 6.18,-17.8 3.87,-17.92 5.24,-36.67 5.34,-55 0.11,-37.08 -4.71,-74.26 -17.07,-109.25 -2.31,-6.39 8.06,-10.89 10.99,-4.61 18.34,38.86 29.54,79.72 29.96,122.87 0.11,19.69 -0.94,40.54 -6.07,59.71 -1.78,6.91 -5.97,17.28 -11.94,24.4 16.44,0.84 32.99,1.26 49.44,1.05 4.5,-0.1 7.96,1.36 10.58,3.56 11.94,-5.86 22.41,-13.72 30.48,-25.14 12.46,-17.59 18.54,-38.02 19.38,-59.5 1.04,-26.71 -4.61,-53 -10.48,-78.97"
         style="fill:#f68845;fill-opacity:1;fill-rule:nonzero;stroke:none"
         id="path110" />
      <path
         d="m 3267.37,3916.21 c -11.84,-52.59 -23.78,-105.17 -35.72,-157.86 -13.62,-59.91 -28.59,-119.72 -41.9,-179.74 -41.27,-29.75 -79.61,-63.48 -117.94,-96.69 -3.04,-2.72 -6.08,-5.34 -9.12,-7.96 -46.19,-39.8 -110.72,-108.41 -179.22,-87.88 -6.08,1.78 -11.52,4.08 -16.34,6.81 -32.68,17.81 -39.28,53.73 -31.74,96.99 19.27,0.42 38.44,6.92 56.56,13.94 51.96,20.11 102.97,45.77 142.88,84.74 23.15,22.62 42.11,49.23 60.75,75.83 58.35,83.17 115.65,167.18 171.79,251.82"
         style="fill:#f1783a;fill-opacity:1;fill-rule:nonzero;stroke:none"
         id="path112" />
      <path
         d="m 4165.69,3298.93 c -3.88,-9.53 -8.91,-18.33 -15.92,-25.04 -19.91,-18.95 -54.89,-18.01 -80.45,-20 -61.07,-4.72 -122.56,-4.51 -183.62,0.73 -35.09,3.04 -69.97,7.33 -104.65,13.51 -30.06,5.35 -60.02,12.68 -90.39,15.92 38.54,69.03 70.39,141.83 94.58,217.15 8.49,-32.37 18.75,-64.42 30.59,-95.74 9.32,-24.83 20.53,-50.39 41.27,-66.83 14.98,-11.73 33.62,-17.7 52.06,-22.31 83.48,-20.64 170.11,-17.39 256.53,-17.39"
         style="fill:#e3b48a;fill-opacity:1;fill-rule:nonzero;stroke:none"
         id="path114" />
      <path
         d="m 3684.6,3215.68 c 1.72,-1.42 3.83,-2.51 6.46,-3.17 -5.85,-4.28 -11.59,-8.75 -17.25,-13.35 3.64,5.48 7.26,10.97 10.79,16.52 z m 64.61,20.48 c -2.2,3.04 -5.66,5.38 -10.71,6.23 -1.58,0.26 -3.16,0.53 -4.74,0.8 -16,6.47 -32.01,12.95 -48.02,19.42 -7.57,3.07 -17.15,-2.07 -21.03,-8.56 -38.67,-64.59 -84.01,-124.63 -135.36,-179.67 -25.41,-27.23 -51.71,-53.54 -79.72,-78.11 -14.24,-12.5 -28.82,-24.61 -43.75,-36.28 -15.34,-12 -29.26,-25.75 -44.75,-37.51 -8.95,-6.8 -1.23,-21.56 9.09,-15.55 17.65,10.29 35.92,19.18 52.5,31.24 8.62,6.28 16.95,12.95 25.4,19.47 5.53,-3.44 12.6,-4.36 19.41,-0.42 68.81,39.74 133.55,87.04 192.13,140.74 14.63,13.41 28.9,27.23 42.76,41.44 12.71,13.04 27.31,26.45 35.58,42.93 3.07,6.11 5.09,12.56 5.85,19.04 1.74,0.98 3.39,2.1 5.15,3.03 13.86,7.33 10.59,24 0.21,31.76"
         style="fill:#f68845;fill-opacity:1;fill-rule:nonzero;stroke:none"
         id="path116" />
      <path
         d="m 3874.13,3684.14 -0.46,0.13 c 9.83,27.57 9.47,68.58 9.94,85.6 1.49,54.95 -5.04,109.58 -18.74,162.79 -4.46,17.32 -28.79,9.63 -26.2,-7.22 6.42,-41.64 7.6,-83.95 4.03,-125.91 -1.81,-21.29 -4.69,-42.29 -8.71,-63.27 -2.95,-15.37 -5.44,-31.1 -8.54,-46.55 -8.15,-7.22 -10.24,-21.2 2.15,-27.98 15.73,-8.61 33.29,-13.96 50.28,-6.31 13.74,6.18 7.3,24.36 -3.75,28.72"
         style="fill:#f68845;fill-opacity:1;fill-rule:nonzero;stroke:none"
         id="path118" />
      <path
         d="m 2926.58,3805.57 c -0.76,2.19 -1.7,4.43 -2.85,6.47 -0.8,1.41 -1.96,3.2 -3.03,4.17 -2.21,2.04 -4.01,2.78 -6.81,3.9 -1.16,0.16 -2.32,0.31 -3.48,0.47 -1.8,0.07 -3.48,-0.31 -5.04,-1.13 l -1.5,-0.9 c -5.07,1.47 -10.4,1.6 -15.64,0.18 -6.88,-1.88 -13,-6.31 -16.73,-12.4 -4.65,-7.6 -4.26,-16.85 -0.26,-24.59 0.96,-1.85 2.39,-3.52 3.72,-5.09 l 2.12,-2.02 c 3.69,-2.97 6.96,-4.97 11.56,-6.4 1.68,-0.52 3.38,-0.81 5.07,-1.01 2.76,-1.35 6.22,-2.15 9.16,-1.04 2.66,1 4.87,2.24 7.01,3.71 l 1.33,0.52 c 2.16,1.07 4.14,2.75 5.94,4.3 1.39,1.19 2.45,2.6 3.57,4.05 1.16,1.51 2.28,2.95 3.1,4.68 1.02,2.16 2.2,4.48 2.68,6.86 0.93,4.63 1.7,10.66 0.08,15.27"
         style="fill:#f68845;fill-opacity:1;fill-rule:nonzero;stroke:none"
         id="path120" />
      <path
         d="m 2951.88,3866.85 c -0.63,2.23 -1.76,4.17 -3.39,5.81 -1.2,1.28 -2.61,2.19 -4.24,2.72 -1.57,0.83 -3.26,1.21 -5.08,1.14 -2.38,-0.01 -4.59,-0.61 -6.65,-1.8 -1.98,-1.17 -3.55,-2.75 -4.73,-4.73 -1.19,-2.05 -1.79,-4.27 -1.79,-6.65 l -0.12,-1.43 -0.05,-0.67 c -0.11,-1.3 0.01,-2.48 0.4,-3.85 0.37,-1.56 1.09,-2.92 2.15,-4.07 0.84,-1.31 1.96,-2.34 3.36,-3.09 0.95,-0.4 1.91,-0.81 2.86,-1.21 2.12,-0.57 4.25,-0.57 6.37,0 2.8,1.08 3.2,1.21 5.46,3.19 l 0.31,0.27 0.57,0.51 1.18,1.04 c 1.63,1.64 2.76,3.58 3.39,5.81 0.62,2.34 0.62,4.67 0,7.01"
         style="fill:#f68845;fill-opacity:1;fill-rule:nonzero;stroke:none"
         id="path122" />
      <path
         d="m 2855.32,3691.75 -0.02,0.05 -0.03,0.06 -0.05,0.15 -0.03,0.08 -0.51,1.19 -0.51,1.22 c -0.62,1.16 -1.47,2.09 -2.55,2.78 -0.96,0.88 -2.08,1.47 -3.37,1.78 l -0.29,0.1 -2.2,0.76 c -1.91,0.52 -3.82,0.52 -5.74,0 -1.83,-0.51 -3.42,-1.44 -4.77,-2.77 l -1.68,-2.19 c -0.98,-1.69 -1.47,-3.5 -1.48,-5.45 -0.06,-1.49 0.25,-2.88 0.93,-4.16 0.44,-1.34 1.18,-2.5 2.23,-3.48 1.35,-1.34 2.94,-2.27 4.77,-2.78 1.92,-0.51 3.83,-0.51 5.74,0 l 2.2,0.77 0.29,0.1 2.37,1 c 1.48,0.88 2.67,2.06 3.55,3.55 l 1.04,2.48 c 0.32,0.82 0.46,1.32 0.41,2.52 l -0.3,2.24"
         style="fill:#f68845;fill-opacity:1;fill-rule:nonzero;stroke:none"
         id="path124" />
      <path
         d="m 2991.46,3980.5 c -0.61,1.45 -1.22,2.89 -1.83,4.34 -1.15,2.12 -2.71,3.81 -4.68,5.1 -1.14,1.12 -2.47,1.9 -4.01,2.33 -2.17,1.14 -4.5,1.66 -7,1.57 -1.61,-0.22 -3.22,-0.44 -4.83,-0.65 -1.45,-0.61 -2.89,-1.22 -4.34,-1.83 -2.12,-1.15 -3.82,-2.71 -5.1,-4.68 -1.6,-1.76 -2.69,-3.82 -3.25,-6.18 l -0.15,-0.51 -0.03,-0.12 -0.02,-0.07 c -0.19,-1.38 -0.37,-2.75 -0.56,-4.13 0.03,-1.41 0.22,-2.8 0.56,-4.15 l 0.08,-0.25 0.07,-0.24 0.03,-0.14 0.02,-0.05 c 0.56,-2.36 1.65,-4.42 3.25,-6.18 0.81,-1.36 1.9,-2.45 3.26,-3.26 1.76,-1.6 3.81,-2.69 6.18,-3.25 1.61,-0.22 3.22,-0.43 4.83,-0.65 1.61,0.22 3.22,0.43 4.83,0.65 2.36,0.56 4.42,1.65 6.18,3.25 1.36,0.81 2.45,1.9 3.25,3.26 1.61,1.76 2.69,3.82 3.26,6.18 0.21,1.61 0.43,3.22 0.65,4.83 -0.22,1.61 -0.44,3.22 -0.65,4.83"
         style="fill:#f68845;fill-opacity:1;fill-rule:nonzero;stroke:none"
         id="path126" />
      <path
         d="m 2969.78,4162.28 c -7.57,1.72 -13.8,-2.3 -16.41,-9.32 -0.44,-1.17 -0.9,-2.33 -1.35,-3.5 l -0.06,-0.17 c -0.89,-1.96 -1.83,-3.87 -2.86,-5.75 -2.17,-3.96 -4.66,-7.68 -7.04,-11.51 -2.31,-3.71 -4.92,-7.22 -7.33,-10.87 -1.19,-1.8 -2.35,-3.67 -3.45,-5.53 -1.86,-3.13 -2.7,-6.65 -2.4,-10.21 -0.51,-1.11 -1.07,-2.21 -1.43,-3.36 -0.78,-2.49 -1.52,-5.31 -1.24,-7.92 0.35,-3.28 1.91,-5.69 4.44,-7.02 -0.85,0.22 -0.74,0.11 0.56,-0.41 l 2.05,-0.56 0.63,-0.03 0.45,-0.11 -0.34,0.1 c 1.13,-0.09 2.17,0 3.35,0.16 1.38,0.19 2.56,0.52 3.85,1.02 2.49,0.96 4.67,2.22 6.81,3.6 3.53,0.51 6.81,1.95 9.59,5.01 2.19,2.4 4.31,5.14 6.13,7.77 2.65,3.86 4.64,8.15 6.53,12.42 4.18,9.47 6.89,19.63 8.83,29.79 1.31,6.82 -1.91,14.71 -9.31,16.4"
         style="fill:#f68845;fill-opacity:1;fill-rule:nonzero;stroke:none"
         id="path128" />
      <path
         d="m 3000,3357.95 c -3.14,4.07 -7.02,5.51 -12.01,6.03 -1.3,0.14 -2.66,0.11 -3.97,0.06 -3.2,-0.01 -6.19,-0.81 -8.95,-2.42 3.58,1.53 2.86,1.23 -2.16,-0.9 -2.42,-1.18 -4.75,-2.53 -7.18,-3.71 -1.38,-0.68 -2.78,-1.31 -4.18,-1.96 -0.91,-0.42 -3.2,-2.01 -4.18,-1.9 l 2.04,0.88 -2.16,-0.86 c -1.44,-0.55 -2.9,-1.08 -4.36,-1.57 -5.48,-1.86 -11.05,-3.25 -16.63,-4.75 -2.53,-0.69 -5.16,-1.41 -7.64,-2.25 -2.11,-0.72 -4.18,-1.71 -6.21,-2.62 l -1.84,-0.84 c 1.1,0.55 0.99,0.6 -0.32,0.16 -10.59,-2.73 -9.96,-17.8 0,-20.83 l 0.9,-0.15 c 1.12,-0.38 2.24,-0.98 3.3,-1.42 1.35,-0.56 2.74,-1.14 4.17,-1.48 3.61,-0.86 8.04,-1.31 11.81,-1.35 7.36,-0.08 14.94,1.16 22.09,2.78 7.2,1.64 13.99,4.06 20.77,6.98 2.81,1.21 5.75,2.39 8.28,4.12 3.16,2.17 6.02,4.51 8.02,7.83 1.29,2.16 2.29,4.48 3.15,6.84 1.65,4.49 0.03,9.75 -2.74,13.33"
         style="fill:#f68845;fill-opacity:1;fill-rule:nonzero;stroke:none"
         id="path130" />
      <path
         d="m 3107.76,3394.87 c -0.55,2.27 -2.31,4.4 -4.29,5.6 -1.46,0.88 -3.21,1.26 -4.89,1.35 l -0.62,0.02 -0.41,0.02 h -0.21 c -0.93,-0.12 -1.87,-0.25 -2.81,-0.37 l -2.64,-1.13 -2.27,-1.72 -0.68,-0.61 -1.36,-1.23 -2.53,-2.28 c -1.98,-1.79 -3.96,-3.58 -5.94,-5.36 -0.96,-0.89 -1.64,-1.94 -2.03,-3.16 -0.62,-1.17 -0.9,-2.43 -0.85,-3.79 l 0.35,-2.61 c 0.31,-1.27 0.89,-2.39 1.76,-3.34 l 1.76,-1.76 c 0.95,-0.86 2.06,-1.45 3.34,-1.75 2.44,-0.56 5.45,-0.53 7.57,0.99 3.79,2.71 7.61,5.4 11.39,8.13 l 2.25,1.74 0.99,1.28 0.83,1.07 1.07,2.52 0.08,0.43 0.12,0.63 0.21,1.48 v 2.53 l -0.19,1.32"
         style="fill:#f68845;fill-opacity:1;fill-rule:nonzero;stroke:none"
         id="path132" />
      <path
         d="m 3047.69,3335.24 c -1.28,-0.33 -2.58,-0.62 -3.84,-0.99 -1.72,-0.5 -3.1,-1.42 -4.59,-2.35 -2.3,-1.44 -4.6,-2.88 -6.9,-4.32 -4.68,-2.93 -9.1,-6.29 -13.59,-9.51 -1.42,-1.02 -2.53,-2.17 -3,-3.91 -0.44,-1.57 -0.24,-3.66 0.65,-5.05 1.82,-2.81 5.94,-4.41 8.96,-2.35 4.96,3.39 9.97,6.69 14.71,10.38 2.2,1.71 4.4,3.42 6.59,5.13 1.43,1.11 2.58,2.05 3.64,3.56 0.74,1.04 1.45,2.1 2.18,3.16 2.18,3.18 -1.42,7.12 -4.81,6.25"
         style="fill:#f68845;fill-opacity:1;fill-rule:nonzero;stroke:none"
         id="path134" />
      <path
         d="m 2905.47,3222.57 c 24.93,14.14 51.85,25.45 79.61,32.99 -3.57,-1.67 -6.92,-3.87 -10.06,-6.49 -1.26,-0.94 -2.3,-2.1 -3.35,-3.14 -87.99,-22 -123.4,-121.62 -153.35,-197.45 -15.19,-38.45 -30.17,-76.78 -45.15,-115.23 -51.22,20.95 -99.72,47.77 -142.14,83.8 -45.67,38.65 -84.85,85.37 -115.43,136.8 -70.29,117.95 -91.66,259.04 -78.36,394.38 1.78,18.33 4.19,36.66 7.44,54.89 4.92,-56.25 17.39,-111.77 38.23,-164.25 40.75,-102.44 114.18,-192.94 209.92,-247.52 23.78,-13.61 49.75,-25.14 77.09,-25.87 49.76,-1.26 92.18,32.58 135.55,57.09"
         style="fill:#f68845;fill-opacity:1;fill-rule:nonzero;stroke:none"
         id="path136" />
      <path
         d="m 3307.91,2877.84 c -8.49,-1.67 -16.97,-2.93 -25.56,-4.08 -12.47,-1.68 -25.04,-2.52 -37.61,-3.35 -14.24,-0.95 -27.96,-3.77 -42.21,-5.24 l 1.57,6.91 c 10.37,47.45 22.52,94.8 31.22,142.56 7.43,41.17 11,89.88 -17.91,124.02 -2.41,2.83 -5.35,3.78 -8.28,3.57 -0.73,26.18 -7.85,51.22 -28.07,71.85 -36.03,36.77 -92.91,45.15 -141.94,49.34 -3.77,0.31 -7.64,0.52 -11.52,0.52 26.82,3.36 54.05,2.83 80.76,-2.41 69.03,-13.51 132.82,-61.69 155.14,-128.31 13.82,-41.38 11.52,-86.1 15.18,-129.47 3.77,-43.05 13.62,-85.58 29.23,-125.91"
         style="fill:#f68845;fill-opacity:1;fill-rule:nonzero;stroke:none"
         id="path138" />
      <path
         d="m 2718.16,3247.04 -2.51,1.98 -2.34,1.48 -1.62,0.73 c -2.39,1.09 -4.79,2.14 -7.26,3.04 -2.6,0.95 -5.19,1.9 -7.78,2.84 -2.6,0.95 -5.21,1.8 -7.85,2.61 -1.81,0.55 -3.44,1.01 -5.33,1.26 -1.97,0.27 -3.88,0.32 -5.85,0.41 -2.26,0.09 -5.01,-0.75 -6.94,-1.88 -2.59,-1.51 -4.48,-3.85 -5.63,-6.57 -2.11,-5.01 -1.12,-11.13 2.84,-15.02 0.93,-0.91 1.81,-1.86 2.75,-2.75 1.84,-1.74 3.92,-2.88 6.07,-4.12 2.3,-1.33 4.6,-2.61 6.97,-3.81 l 7.09,-3.6 c 2.34,-1.19 4.74,-2.18 7.19,-3.2 1.25,-0.52 2.54,-1.22 3.88,-1.44 1.49,-0.2 2.98,-0.4 4.46,-0.6 2.31,-0.08 4.47,0.4 6.46,1.45 3.23,1.36 6.34,3.68 8.02,6.86 1.4,2.64 2.16,5.49 2.29,8.47 0.2,4.38 -2.06,8.72 -4.91,11.86"
         style="fill:#f68845;fill-opacity:1;fill-rule:nonzero;stroke:none"
         id="path140" />
      <path
         d="m 2640.38,3314.18 c -0.68,1.06 -1.5,2.05 -2.25,3.06 -1.79,2.44 -3.55,4.9 -5.39,7.29 -3.45,4.46 -7.05,8.81 -10.58,13.2 -1.34,1.68 -4.52,2.83 -6.59,2.73 -2.11,-0.09 -3.98,-0.7 -5.66,-2 -1.54,-1.19 -2.89,-2.89 -3.34,-4.84 -0.52,-2.29 -0.53,-5.23 0.94,-7.19 3.39,-4.51 6.75,-9.04 10.19,-13.51 1.8,-2.32 3.71,-4.57 5.58,-6.84 0.8,-0.97 1.58,-1.98 2.41,-2.93 1.72,-1.98 4.15,-2.73 6.53,-3.58 4.46,-1.6 10.32,2.67 9.84,7.5 -0.24,2.44 -0.31,4.99 -1.68,7.11"
         style="fill:#f68845;fill-opacity:1;fill-rule:nonzero;stroke:none"
         id="path142" />
      <path
         d="m 3778.25,3897.37 c -5.18,11.9 -23.2,7.49 -26.32,-3.44 -4.3,-15.08 -3.38,-30.32 -2.97,-45.85 0.42,-15.42 0.5,-30.85 0.25,-46.27 -0.51,-30.83 -2.35,-61.65 -5.49,-92.33 -6.12,-59.69 -17.08,-118.78 -32.75,-176.7 -31.96,-118.12 -83.32,-229.02 -150.51,-331.16 -37.52,-57.04 -83.12,-107.92 -121.16,-164.47 -3.79,-5.63 3.77,-13.22 9.4,-9.41 51.93,35.14 91.8,84.77 128.37,135.04 37.15,51.04 69.19,105.67 96.62,162.51 54.62,113.19 90.34,234.41 105.82,359.12 4.32,34.76 6.78,69.77 7.59,104.79 0.8,34.38 5.11,76.12 -8.85,108.17"
         style="fill:#fbc694;fill-opacity:1;fill-rule:nonzero;stroke:none"
         id="path144" />
      <path
         d="m 3722.71,3755.21 c -2.61,5.53 -9.87,8.16 -15.47,7.41 -6.52,-0.88 -10.59,-5.2 -12.91,-11.12 -2.81,-7.16 -5.06,-14.46 -6.91,-21.83 -2.07,-6.22 -3.53,-12.63 -4.42,-19.23 -0.72,-5.39 -1.23,-11.44 -0.96,-17.43 -0.65,-13.11 -0.05,-26.32 1.8,-39.46 0.88,-6.25 7.96,-10.94 13.58,-11.7 5.87,-0.78 13.66,1.93 16.28,7.8 7.14,16 11.51,32.51 13.28,49.33 6.13,18.14 3.77,39.16 -4.27,56.23"
         style="fill:#fbc694;fill-opacity:1;fill-rule:nonzero;stroke:none"
         id="path146" />
      <path
         d="m 3712.58,3818.29 c -0.74,2.7 -2.82,5.62 -5.34,6.95 -2.69,1.42 -5.96,2.14 -8.95,1.17 -0.93,-0.39 -1.85,-0.78 -2.78,-1.17 -1.74,-1.03 -3.13,-2.42 -4.17,-4.17 -0.68,-1.59 -1.36,-3.18 -2.04,-4.77 -1.04,-2.44 -2.24,-4.87 -3.07,-7.38 l -1.63,-4.88 c -0.85,-2.54 -0.63,-4.97 -0.49,-7.56 0.19,-3.74 2.16,-6.96 5.68,-8.45 1.58,-0.66 3.1,-0.86 4.79,-0.63 2.12,0.29 3.68,1.14 5.31,2.54 1.89,1.62 3.76,3.11 4.95,5.36 0.81,1.52 1.61,3.03 2.42,4.55 1.61,3.03 2.8,6.33 4.15,9.49 0.85,1.33 1.31,2.77 1.38,4.32 0.35,1.54 0.28,3.09 -0.21,4.63"
         style="fill:#fbc694;fill-opacity:1;fill-rule:nonzero;stroke:none"
         id="path148" />
      <path
         d="m 3687.39,3578.05 c -1.22,2.27 -2.9,4.1 -5.03,5.48 -1.89,1.73 -4.1,2.9 -6.65,3.5 -2.6,0.82 -5.2,0.93 -7.8,0.35 -2.6,-0.12 -5.02,-0.89 -7.26,-2.32 -2.94,-1.74 -5.28,-4.08 -7.02,-7.01 -0.65,-1.56 -1.31,-3.12 -1.97,-4.67 -0.93,-3.47 -0.93,-6.93 0,-10.4 0.66,-1.55 1.32,-3.11 1.97,-4.67 1.74,-2.94 4.08,-5.27 7.02,-7.01 1.51,-0.88 3.08,-1.53 4.71,-1.98 l -0.03,0.01 0.04,-0.01 1.02,-0.15 c 3.08,-0.68 6.17,-0.7 9.25,0.13 1.65,0.44 3.17,1.29 4.72,1.99 l 0.02,0.01 c 1.49,0.74 2.81,1.76 3.96,3.05 2.42,2.44 4.1,5.32 5.03,8.63 0.23,1.73 0.46,3.47 0.69,5.2 -0.01,3.53 -0.9,6.82 -2.67,9.87"
         style="fill:#fbc694;fill-opacity:1;fill-rule:nonzero;stroke:none"
         id="path150" />
      <path
         d="m 2527.46,3016.55 c 3.92,-3.45 8.07,-6.68 12.4,-9.61 2.29,-1.54 4.72,-2.94 7.33,-3.84 2.53,-0.88 4.96,-1.81 7.61,-0.93 1.37,0.47 2.42,1.93 1.94,3.43 -0.82,2.56 -2.55,3.79 -4.5,5.5 -1.99,1.74 -4.22,3.18 -6.44,4.62 -3.84,2.51 -7.58,5.13 -11.1,8.08 -7.3,6.11 -13.85,13.11 -19.34,20.89 -1.47,2.1 -4.14,3.08 -6.49,1.71 -2.11,-1.24 -3.13,-4.35 -1.7,-6.5 5.74,-8.6 12.52,-16.51 20.29,-23.35"
         style="fill:#54241e;fill-opacity:1;fill-rule:nonzero;stroke:none"
         id="path152" />
      <path
         d="m 2475.53,2995.18 c 1.32,-1.47 2.63,-2.94 3.95,-4.41 1.43,-1.6 2.82,-3.54 4.52,-4.85 6.26,-4.84 11.71,-10.63 17.99,-15.45 2.32,-1.78 5.38,1.63 3.92,3.92 -2.1,3.27 -4.49,6.3 -6.86,9.38 -1.18,1.54 -2.37,3.07 -3.55,4.61 -1.32,1.73 -2.32,3.68 -3.65,5.39 -2.45,3.18 -5.56,5.99 -8.32,8.91 -2.79,2.95 -5.58,5.9 -8.37,8.85 -1.97,2.08 -5.53,1.99 -7.52,0 -2.13,-2.13 -1.92,-5.38 0,-7.53 2.63,-2.94 5.26,-5.88 7.89,-8.82"
         style="fill:#54241e;fill-opacity:1;fill-rule:nonzero;stroke:none"
         id="path154" />
      <path
         d="m 2197.34,2803.37 25.59,-17.99 c 4.34,-3.06 8.69,-6.11 13.04,-9.17 4.26,-3 8.63,-6.42 13.35,-8.64 4.41,-2.07 10.35,-6.16 15.13,-3.03 5.95,3.9 0.23,10.42 -3.25,13.53 -7.93,7.11 -17.35,12.37 -26.37,17.98 -10.21,6.35 -20.42,12.7 -30.63,19.04 -3.12,1.94 -7.48,0.67 -9.29,-2.43 -1.99,-3.4 -0.58,-7.18 2.43,-9.29"
         style="fill:#54241e;fill-opacity:1;fill-rule:nonzero;stroke:none"
         id="path156" />
      <path
         d="m 2254.68,2824.04 c 4.93,-2.76 9.8,-5.87 14.96,-8.17 l 7.56,-3.38 c 1.38,-0.62 2.77,-1.35 4.22,-1.81 1.45,-0.45 2.96,-0.76 4.43,-1.14 2.68,-0.69 4.95,2.79 2.79,4.79 -2.27,2.09 -4.47,3.97 -7.06,5.66 -2.3,1.51 -4.59,3.01 -6.89,4.51 -4.73,3.09 -9.98,5.5 -14.97,8.16 -2.31,1.22 -5.54,0.65 -6.83,-1.79 -1.25,-2.36 -0.65,-5.47 1.79,-6.83"
         style="fill:#54241e;fill-opacity:1;fill-rule:nonzero;stroke:none"
         id="path158" />
      <path
         d="m 2190.37,2691.94 c 4.24,-1.82 8.52,-3.47 13.05,-4.4 2.53,-0.52 5.08,-0.9 7.64,-1.23 2.62,-0.34 4.72,0.3 7.15,1.22 3.48,1.31 4.33,5.81 1.03,7.93 -1.89,1.22 -3.54,2.4 -5.79,2.92 -1.96,0.45 -3.92,0.9 -5.86,1.45 -3.99,1.14 -7.99,2.37 -11.86,3.87 -6.51,2.52 -14.02,6.82 -19.72,11.38 -2.58,2.08 -6.15,2.53 -8.67,0 -2.2,-2.2 -2.54,-6.52 0,-8.67 6.96,-5.92 14.62,-10.86 23.03,-14.47"
         style="fill:#54241e;fill-opacity:1;fill-rule:nonzero;stroke:none"
         id="path160" />
      <path
         d="m 2513.95,2685.59 c -3.55,4.55 -7.45,9 -11.87,12.73 -9.52,8.06 -20.17,14.29 -31.82,18.73 -2.97,1.13 -6.53,-1.01 -7.63,-3.74 -1.13,-2.82 -0.28,-6.6 2.65,-8.07 4.85,-2.46 9.51,-5.29 13.9,-8.5 l 1.53,-1.15 1.07,-0.86 c 0.95,-0.78 1.89,-1.57 2.82,-2.39 2.13,-1.87 4.17,-3.84 6.14,-5.88 1.9,-1.96 3.81,-3.89 5.61,-5.94 0.9,-1.02 1.78,-2.06 2.63,-3.12 l 0.87,-1.11 0.75,-1 c 1.9,-2.55 4.11,-4.79 6.14,-7.23 2.18,-2.62 4.18,-4.76 7.66,-5.54 2.84,-0.64 5.27,0.86 6.24,3.55 1.43,3.93 0,7.38 -1.68,10.95 -1.44,3.05 -2.93,5.9 -5.01,8.57"
         style="fill:#54241e;fill-opacity:1;fill-rule:nonzero;stroke:none"
         id="path162" />
      <path
         d="m 2449.28,2655.55 c -8.78,4.7 -17.56,9.41 -26.34,14.11 -5.86,3.14 -10.85,-5.38 -5.21,-8.9 l 25.35,-15.82 c 8.62,-5.38 17.53,-9.37 27.02,-12.94 3.61,-1.35 6.8,4.11 3.83,6.57 -7.82,6.45 -15.7,12.19 -24.65,16.98"
         style="fill:#54241e;fill-opacity:1;fill-rule:nonzero;stroke:none"
         id="path164" />
      <path
         d="m 3008.69,2551.14 c -61.58,3.94 -121.29,20.82 -179.25,41.31 -5.94,2.1 -8.89,-6.54 -4.1,-9.73 27.14,-18.02 55.9,-31.46 87.44,-40.02 31.27,-8.48 63.55,-13.78 95.91,-15.45 15.41,-0.8 15.26,22.91 0,23.89"
         style="fill:#54241e;fill-opacity:1;fill-rule:nonzero;stroke:none"
         id="path166" />
      <path
         d="m 2899.06,2578.96 c 10.93,0.95 21.7,-0.32 32.08,-3.87 5.02,-1.71 9.68,-3.84 14.41,-6.22 4.96,-2.5 10.26,-4.47 15.36,-6.69 4.03,-1.74 9.74,2.17 6.71,6.72 -14.69,22.12 -45.83,26.32 -70.15,21.8 -6.55,-1.22 -5.14,-12.32 1.59,-11.74"
         style="fill:#54241e;fill-opacity:1;fill-rule:nonzero;stroke:none"
         id="path168" />
      <path
         d="m 2928.81,2488.51 c -7.8,4.51 -16.11,7.14 -24.72,9.63 -8.26,2.39 -16.53,4.78 -24.8,7.17 -3.18,0.92 -6.68,-1.12 -7.55,-4.28 -0.95,-3.45 1.18,-6.38 4.29,-7.55 8.08,-3.06 16.16,-6.12 24.24,-9.18 3.89,-1.48 7.77,-2.97 11.72,-4.28 4.39,-1.44 9.24,-2.09 13.81,-2.65 2.56,-0.31 5.12,2.08 5.76,4.39 0.7,2.54 -0.46,5.42 -2.75,6.75"
         style="fill:#54241e;fill-opacity:1;fill-rule:nonzero;stroke:none"
         id="path170" />
      <path
         d="m 2032.21,2253.52 c -7.27,2.27 -14.46,4.89 -21.4,8.04 -14.72,6.69 -28.49,15.13 -41.61,24.57 -25.18,18.13 -48.74,42.82 -63.89,69.96 -4.8,8.6 -16.51,1.04 -12.86,-7.52 14.05,-32.88 33.74,-61.16 61.79,-83.63 13.78,-11.03 28.86,-20.32 44.91,-27.67 14.31,-6.56 38.17,-19.98 52.47,-7.68 3.13,2.69 2.79,7.05 1.34,10.41 -3.54,8.18 -12.99,11.09 -20.75,13.52"
         style="fill:#54241e;fill-opacity:1;fill-rule:nonzero;stroke:none"
         id="path172" />
      <path
         d="m 1985.46,2304.84 c 2.26,-2.13 4.52,-4.27 6.78,-6.4 1.16,-1.1 2.33,-2.2 3.49,-3.3 1.51,-1.42 3.06,-2.36 4.88,-3.31 4.46,-2.35 9.18,2.35 6.83,6.83 -0.91,1.72 -1.77,3.24 -3.14,4.68 -1.09,1.17 -2.19,2.33 -3.29,3.49 -2.19,2.32 -4.39,4.65 -6.59,6.97 -4.39,4.65 -8.91,9.16 -13.47,13.65 -2.41,2.38 -6.77,2.59 -9.14,0 -2.38,-2.59 -2.54,-6.57 0,-9.14 4.49,-4.56 9,-9.07 13.65,-13.47"
         style="fill:#54241e;fill-opacity:1;fill-rule:nonzero;stroke:none"
         id="path174" />
      <path
         d="m 3103.42,3678.48 c 3.36,-0.77 6.07,1.02 7.25,4.11 2.4,6.31 4.98,12.58 7.19,18.96 1.08,3.13 2.07,6.29 3.11,9.43 1.14,3.47 1.33,6.99 1.64,10.62 0.16,1.84 -1.43,3.64 -3.12,4.1 -1.91,0.53 -3.74,-0.38 -4.81,-1.95 -0.95,-1.4 -1.91,-2.8 -2.86,-4.19 -1.14,-1.66 -1.79,-3.5 -2.51,-5.37 -1.19,-3.09 -2.44,-6.18 -3.58,-9.29 -2.33,-6.32 -4.29,-12.79 -6.43,-19.18 -0.97,-2.92 1.13,-6.56 4.12,-7.24"
         style="fill:#54241e;fill-opacity:1;fill-rule:nonzero;stroke:none"
         id="path176" />
      <path
         d="m 4222.39,3528.18 c -12.17,-61 -26.84,-121.42 -43.3,-181.4 -6.43,-23.46 -10.83,-55.27 -29.3,-72.89 -19.88,-18.96 -54.94,-17.96 -80.48,-19.97 -61.09,-4.8 -122.56,-4.51 -183.61,0.75 -35.06,3.02 -69.97,7.32 -104.63,13.47 -30.06,5.33 -59.99,12.65 -90.38,15.92 40.52,72.73 73.71,149.59 98.4,229.05 9.84,31.64 18.33,63.7 25.43,96.07 2.28,10.4 4.49,20.86 6.45,31.35 35.85,-12.54 77.31,-12.19 114.83,-12.28 39.52,-0.11 78.83,2.94 117.93,8.68 38.49,5.64 76.58,14.02 113.88,25.12 19.38,5.76 38.52,12.34 57.38,19.66 7.55,2.93 16.37,5.76 24.95,9.14 -9.3,-54.19 -16.78,-108.67 -27.55,-162.67 z m -517.1,-379.42 c -54.44,-75.54 -121.34,-143.36 -200.54,-192.9 -44.64,-27.92 -92.63,-49.86 -143.08,-64.95 -25.91,-7.75 -52.46,-13.69 -79.29,-17.16 -12.5,-1.62 -25.06,-2.54 -37.64,-3.34 -14.22,-0.91 -28.01,-3.82 -42.18,-5.28 l 1.53,7 c 10.39,47.42 22.58,94.73 31.22,142.49 7.46,41.22 10.99,89.87 -17.94,124.07 -2.34,2.76 -5.28,3.72 -8.21,3.56 -0.79,26.19 -7.88,51.19 -28.09,71.81 -36.08,36.79 -92.88,45.14 -141.91,49.35 -22.37,1.92 -46.05,0.39 -64.15,-14.29 -1.22,-1 -2.24,-2.11 -3.37,-3.17 -87.91,-22.07 -123.38,-121.62 -153.33,-197.51 -15.13,-38.36 -30.13,-76.77 -45.14,-115.18 -51.25,20.99 -99.7,47.73 -142.15,83.76 -45.63,38.73 -84.83,85.43 -115.44,136.83 -70.22,117.95 -91.63,259.03 -78.37,394.35 25.41,259.45 179.31,506.1 401.11,642.69 107.64,66.29 230.26,107.19 356.01,117.87 l -0.14,-1.08 c 0.03,-8.19 5.71,-11.32 9.78,-17.44 3.48,-5.22 4.96,-11.68 6.24,-17.73 3.81,-17.99 5.22,-36.73 5.29,-55.08 0.14,-37.06 -4.67,-74.22 -17.09,-109.21 -2.27,-6.4 8.15,-10.9 11.07,-4.67 18.25,38.93 29.53,79.77 29.88,122.91 0.15,19.7 -0.95,40.56 -5.98,59.69 -1.83,6.94 -5.97,17.3 -11.99,24.45 16.46,0.82 32.96,1.22 49.48,0.99 4.44,-0.06 7.92,1.35 10.53,3.57 11.93,-5.86 22.45,-13.66 30.53,-25.08 12.44,-17.58 18.49,-38.06 19.31,-59.47 1.03,-26.77 -4.61,-53.09 -10.44,-79.06 -5.87,-26.14 -11.84,-52.27 -17.77,-78.41 -23.78,-104.92 -47.56,-209.85 -71.34,-314.77 -13.61,-60.06 -28.62,-119.83 -41.89,-179.95 -0.42,-1.89 -0.42,-3.64 -0.24,-5.3 -36.27,-29.93 -72.78,-59.57 -111.08,-86.66 -12.09,-8.56 -24.48,-16.73 -37.03,-24.64 6.33,7.71 12.01,15.77 17.01,24.47 11.7,20.32 20.98,42.52 26.56,65.31 2.28,9.32 8.35,28.05 -2.36,34.41 -11.97,7.1 -17.36,-11.15 -19.05,-19.31 -4.58,-22.2 -11.91,-43.8 -22.38,-63.92 -5.95,-11.42 -12.81,-22.5 -19.75,-33.34 -2.21,-3.45 -14.48,-19.77 -11.07,-25.96 -11.87,-6.55 -23.88,-12.82 -36.25,-18.37 -18.78,-8.43 -38.37,-15.31 -58.29,-20.54 -19.62,-5.15 -39.82,-9.96 -59.65,-13.94 -11.84,-2.37 -8.09,-19.13 2.7,-19.93 17.51,-1.3 33.03,-1.34 50.32,2.31 17.94,3.78 35.5,9.1 52.57,15.77 33.19,12.97 64.58,29.91 94.41,49.35 62.86,40.97 119.77,90.73 178.06,137.76 130.04,104.92 262.9,206.4 398.48,304.06 37.08,26.72 73.79,54.79 112.56,79.03 19.4,12.13 40.66,22.01 62.66,26.1 2.18,-14.62 6.8,-29.33 9.1,-43.77 3.08,-19.38 4.94,-38.98 6.09,-58.56 1.1,-18.74 1.3,-37.5 0.4,-56.26 -0.96,-20.03 -1.02,-40.2 -3.72,-60.09 -1.3,-9.57 12.37,-14.13 15,-4.13 5.02,19.1 10.5,38.09 12.81,57.75 2.44,20.79 3.69,41.79 3.52,62.73 -0.17,20.1 -1.96,40.06 -4.79,59.96 -1.97,13.86 -3.66,29.55 -7.68,43.85 1.15,-0.11 2.29,-0.09 3.44,-0.24 -0.2,-1.87 -0.05,-3.91 0.58,-6.12 6.87,-23.89 17.5,-46.52 25.31,-70.17 7.83,-23.7 14.16,-47.89 19.08,-72.36 9.57,-47.59 13.4,-96.2 12.52,-144.71 -0.22,-11.79 -0.9,-23.54 -1.73,-35.26 -24.68,1.24 -49.39,2.93 -73.83,1.14 2.51,17.12 3.92,34.36 3.16,51.73 -0.41,9.3 -13.4,11.23 -16.23,2.2 -8.68,-27.69 -13.1,-56.18 -18.99,-84.52 -5.9,-28.39 -12.84,-56.56 -20.84,-84.43 -16.05,-55.99 -36.27,-110.82 -60.54,-163.78 -48.83,-106.53 -113.84,-202.49 -188.28,-292.61 -41.36,-50.06 -88.44,-94.8 -135.45,-139.48 -3.1,-2.95 1,-8.53 4.66,-6.04 24.7,16.76 47.69,34.21 69.78,54.31 21.43,19.51 42.13,39.87 62.51,60.46 41.41,41.81 78.51,88.57 111.54,137.25 16.47,24.28 32.04,49.18 46.7,74.62 26.45,-12.52 55.25,-19.32 83.85,-25.14 -18.67,-32.63 -38.84,-64.36 -60.66,-94.65 z m -732.54,62.48 c 3.05,6.28 6.93,11.17 11.36,15.12 1.95,0.36 3.88,0.78 5.88,1.06 4.77,0.66 7.09,3.68 7.69,7.22 8.24,3.25 17.55,4.58 27.6,4.42 22.98,-0.36 46.66,-4.87 69.06,-9.76 21.92,-4.8 43.93,-12.21 61.47,-26.69 40.36,-33.32 28.25,-87.15 19.66,-132.19 -10.58,-55.43 -26.92,-109.56 -48.06,-161.87 -7.86,4.48 -17.11,5.51 -26.19,7.22 -11.66,2.2 -23.37,4.13 -35.05,6.2 -22.76,4.05 -45.6,8.58 -67.33,16.66 -17.37,6.46 -34.34,15.37 -48.36,27.62 -12.75,11.14 -20.88,24.94 -30.93,37.92 8.33,45.01 18.32,89.77 30.3,133.94 6.54,24.13 11.95,50.54 22.9,73.13 z m -312.38,-570.31 c -7.56,-20.05 -15.27,-40.03 -23.12,-59.97 -0.94,-0.42 -1.87,-0.92 -2.72,-1.63 -10.87,-9.11 -17.76,-24.21 -25.68,-35.91 -8.59,-12.67 -17.37,-25.22 -26.35,-37.62 -18.25,-25.21 -37.33,-49.8 -57.21,-73.75 -2.08,-2.52 -4.19,-5.06 -6.31,-7.63 5.94,8.69 11.83,17.41 17.4,26.4 15.24,24.56 29.54,49.8 42.02,75.88 6.23,13.02 12.05,26.22 17.57,39.55 3.88,9.35 9.32,19.22 10.79,29.33 15.51,12.35 31.24,24.16 45.68,37.83 z m -1.47,30.01 c -7.45,-7.21 -14.91,-14.42 -22.37,-21.62 -12.21,-11.81 -23.11,-24.62 -34.14,-37.42 -4.08,2.37 -10,1.78 -13.63,-1.38 -9.4,-8.21 -11.85,-24.09 -16.27,-35.5 -4.97,-12.85 -10.31,-25.53 -16.03,-38.06 -11.73,-25.69 -24.54,-50.81 -39.16,-74.99 -25.65,-42.41 -55.76,-82.34 -87.8,-120.25 -1.84,-0.93 -3.72,-1.8 -5.62,-2.65 l -0.32,0.08 c -43.37,4.63 -83.9,22.12 -120.44,45.42 -10.19,11.15 -20.89,21.81 -32.46,31.54 -21.99,18.51 -47.52,37.75 -75.5,47.64 24.89,34.45 44.1,72.43 60.57,111.83 10.06,24.07 18.59,48.67 26.47,73.53 4.17,13.15 7.96,26.42 11.36,39.78 2.25,8.83 6.36,19.39 6.23,29.03 21.1,7.94 41.28,22.93 58.93,34.35 3.11,2.01 6.1,4.19 9.19,6.23 22.94,-34.59 49.35,-65.28 81.61,-91.74 16.41,-13.46 33.63,-25.96 51.63,-37.22 17.48,-10.94 38.69,-26.3 59.6,-28.24 8.9,-0.83 13.21,11.58 7.18,17.32 -7.56,7.2 -17.02,10.87 -26.21,15.61 -9.22,4.76 -18.28,9.82 -27.16,15.18 -17.8,10.72 -34.95,22.59 -51.12,35.65 -30.02,24.28 -58.62,51.88 -83.29,81.75 19.39,13.2 38.5,26.79 57.04,41.17 25.09,19.46 49.53,39.82 72.66,61.58 11.56,10.87 22.89,21.99 33.99,33.34 9.36,9.58 19.61,19.12 27.02,30.4 l 2.3,-1.01 c 5.85,-1.98 12.17,2.51 14.11,8.09 8.74,3.57 17.16,7.84 25.41,12.74 6.39,3.78 12.77,7.57 19.16,11.35 2.98,1.77 5.96,3.53 8.94,5.3 1.18,0.7 2.45,1.4 3.73,2.11 37.29,-25.69 78.07,-45.5 121.37,-57.22 -23.4,-59.97 -46.72,-119.96 -69.99,-179.99 -5.9,-15.22 -11.69,-30.51 -17.47,-45.83 -2.98,-1.8 -5.47,-4.33 -8.33,-7.09 -3.73,-3.6 -7.46,-7.21 -11.19,-10.81 z m 526.72,214.35 c -10.12,-46.51 -20.25,-93.02 -30.37,-139.54 -8.91,-40.9 -16.79,-82.21 -28,-122.56 -5.76,-20.74 -12.68,-41.1 -21.72,-60.65 -4.64,-10.03 -9.71,-19.81 -15.31,-29.35 -4.7,-8 -10.53,-15.42 -14.85,-23.61 -1.17,-1.17 -2.15,-2.64 -2.81,-4.48 -16.96,-47.29 -35.16,-94.11 -54.34,-140.53 -7.35,-0.35 -14.53,-5.18 -13.42,-13.64 0.62,-4.69 1.27,-9.37 1.91,-14.05 -9.2,-21.65 -18.57,-43.21 -28.27,-64.64 -22.46,-49.64 -46.72,-98.45 -70.35,-147.54 -4.15,-0.25 -7.94,-2.59 -9.05,-7.9 -1.02,-4.94 -1.6,-9.87 -1.86,-14.79 -8.71,-18.35 -17.28,-36.76 -25.55,-55.3 -2.16,-4.85 4.16,-8.75 7.21,-4.21 6.65,9.88 13.08,19.95 19.37,30.12 0.44,-4.93 0.91,-9.88 1.29,-14.87 1.62,-21.25 3.21,-42.51 4.73,-63.78 2.92,-40.86 5.81,-81.73 8.15,-122.63 4.7,-82.49 7.52,-165.11 6,-247.73 -2.95,-160.29 -21.04,-321.08 -66.32,-475.23 -24.69,-84.08 -55.48,-167.15 -92.24,-246.7 -3,-6.489 6.33,-12.231 9.75,-5.7 73.23,139.54 123.22,290.23 149.46,445.67 4.62,27.38 8.45,54.85 11.7,82.38 5.26,-46.5 9.97,-93.11 13.24,-139.8 6.59,-94.15 5.47,-189.56 -5.1,-283.38 -20.27,-179.881 -84.37,-350.088 -161.36,-512.741 -14.93,-31.55 -30.7,-62.711 -46.59,-93.82 -0.75,-0.5 -1.43,-1.148 -1.92,-2.09 -43.5,-84.078 -86.73,-168.16 -126.76,-253.988 -19.86,-42.5899 -39.67,-85.1915 -59.26,-127.9024 -9.79,-21.3672 -19.59,-42.7266 -29.38,-64.0977 l -15.24,-33.2304 c -3.43,-7.5 -7.19,-14.1795 -7.81,-21.6915 -8.79,-1.25 -17.54,-2.879 -26.34,-4.25 -17.68,-2.738 -35.4,-5.269 -53.15,-7.519 -34.5,-4.379 -69.11,-7.911 -103.78,-10.579 -67.72,-5.222 -135.69,-7.211 -203.6,-5.972 -137.65,2.492 -275.01,18.582 -409.54,47.781 -71.17,15.4414 -140.89,35.5391 -210.66,56.1484 2.9,8.2618 5.64,16.543 8.29,24.86332 8.82,12.12891 16.94,24.83988 25.08,37.11718 17.34,26.1602 34.09,52.582 50.31,79.4411 31.57,52.27 61.57,105.418 90.4,159.239 57.98,108.211 109.68,219.543 156.67,332.941 12.9,31.129 25.48,62.41 37.7,93.82 6.41,16.45 12.14,33.121 18.27,49.668 4.56,12.321 9.53,24.461 12.82,37.102 102.63,292.61 37.49,615.96 -51.09,903.72 -13.29,43.19 -27.5,86.07 -42.12,128.82 -7.58,22.17 -15.17,44.35 -23.02,66.42 -7.62,21.44 -13.91,44.03 -25.29,63.79 -2.66,4.62 -6.58,6.29 -10.39,6.02 -9.74,17.78 -21.29,34.79 -30.85,52.37 -15.95,29.34 -29.29,60.04 -36.91,92.65 -16.32,69.8 7.27,134.6 35.86,197.63 61.51,135.65 125.94,269.89 192.71,403.02 37.44,74.65 75.06,149.2 113.64,223.28 2.01,3.87 2.08,7.62 0.94,10.86 2.06,3.51 3.18,8.17 5.02,11.74 3.92,7.61 8.5,14.83 14.02,21.38 12.16,14.43 27.42,25.97 43.32,35.95 39.16,24.58 82.1,43.81 122.96,65.36 46.19,24.35 92.4,48.66 138.53,73.12 23.07,12.23 46.13,24.46 69.2,36.69 10.76,5.7 21.52,11.41 32.29,17.12 8.28,4.39 17,8.37 24.94,13.43 4.83,-11.07 9.88,-22.07 15.43,-32.91 35.23,-68.85 87.17,-134.48 150.49,-183.71 -1.1,-0.7 -2.19,-1.41 -3.29,-2.11 -6.24,-4.02 -12.49,-8.04 -18.74,-12.06 -7.94,-5.11 -15.43,-10.6 -22.46,-16.65 -2.76,2.22 -5.68,4.27 -8.67,6.47 -4.99,3.68 -9.89,7.47 -14.75,11.32 -10.11,8.01 -19.73,16.65 -29.31,25.27 -19.31,17.37 -37.47,36.1 -53.39,56.63 -3.89,5.01 -12.07,-1.46 -8.74,-6.75 14.24,-22.64 29.8,-44.42 47.53,-64.47 8.75,-9.89 18.29,-18.99 28.05,-27.87 3.81,-3.47 7.78,-6.75 11.75,-10.04 -8.65,-7.34 -16.09,-16.11 -24.12,-24.19 -11.18,-11.27 -22.6,-22.3 -34.25,-33.09 -22.73,-21.04 -46.01,-41.51 -70.17,-60.89 -24.5,-19.65 -49.85,-38.25 -75.9,-55.77 -17.51,-11.77 -39.19,-22.46 -56.39,-36.54 -1.01,1.11 -2.17,2.1 -3.6,2.75 -64.23,29.25 -124.64,69.53 -174.3,119.83 -6.68,6.77 -15.8,-3.1 -10.18,-10.18 45.76,-57.66 102.49,-104.37 169.28,-135.66 l 0.29,-0.08 c -1.05,-5.14 -1.68,-10.46 -2.75,-15.6 -2.51,-12.01 -5.31,-23.95 -8.42,-35.82 -6.61,-25.2 -15.14,-49.86 -24.84,-74.03 -16.61,-41.38 -38.14,-80.47 -59.51,-119.54 -1.96,0.34 -3.89,0.85 -5.87,1.08 -3.4,0.4 -5.71,-3.13 -5.46,-6.26 -10.15,-1.83 -20.38,-4.94 -29.57,-6.34 -18.66,-2.83 -37.72,-3.84 -56.58,-3.24 -39.31,1.26 -74.88,14.08 -112.99,21.62 -7.29,1.44 -15.52,-8.43 -8.21,-14.09 33.03,-25.53 78.45,-33.37 119.25,-35.68 20.87,-1.18 41.67,-0.09 62.34,2.95 15.99,2.35 35.97,4.81 49.27,15.24 7.33,-4.89 14.8,-9.58 22.14,-14.44 9.45,-6.27 18.6,-12.97 27.54,-19.91 -6.38,-1.13 -12.65,-2.48 -18.5,-3.63 -17.55,-3.46 -35.05,-8.01 -51.85,-14.18 -33.09,-12.15 -63.83,-29.75 -91.81,-51.12 -6.65,-5.07 -0.72,-16.35 6.78,-11.58 28.33,18 58.89,31.37 91.02,40.98 15.66,4.68 31.46,8.65 47.61,11.23 8.01,1.28 16.07,2.2 24.16,2.85 6.75,0.53 13.78,0.31 20.54,1.23 8.84,-8.48 17.43,-17.22 25.42,-26.48 5.21,-6.05 10.11,-12.32 14.99,-18.62 -0.04,-3.88 0.17,-7.76 0.44,-11.11 0.73,-9.36 1.57,-18.61 2.88,-27.9 1.24,-8.77 2.49,-17.54 3.73,-26.31 1.34,-9.51 1.02,-21.36 7.93,-28.64 5.35,-5.63 16.43,-4.75 20.02,2.58 4.73,9.68 0.81,21.29 -0.86,31.5 -1.43,8.72 -2.86,17.44 -4.29,26.15 -0.75,4.59 -1.64,9.13 -2.59,13.65 2.39,0.76 4.45,2.41 5.04,5.07 0.77,3.5 0.42,7.07 -0.4,10.65 26.64,-13.14 55.94,-21.2 85.62,-24.36 6.36,-0.68 11.93,4.91 13.36,10.86 41.94,13.29 73.99,54.52 101.18,87.02 19.89,23.78 38.99,48.23 57.39,73.19 -3.32,-7.17 -6.51,-14.41 -9.97,-21.52 -37.18,-76.37 -86.53,-148.89 -161.89,-191.83 -46.13,-26.28 -98.84,-39.75 -151.28,-45.85 -26.42,-3.06 -53.04,-4.57 -79.62,-5.37 -27.35,-0.83 -54.55,-4.18 -81.94,-5.02 -5.84,-0.18 -5.74,-8.57 0,-9 24.35,-1.8 48.66,-5.07 73.04,-6.2 23.53,-1.08 47.49,0.23 70.96,2.05 46.4,3.59 93.29,11.26 136.7,28.58 80.59,32.16 139.41,94.14 183.17,167.63 46.61,78.28 76.85,165.47 109.69,250.06 34.25,88.24 68.68,176.41 102.65,264.76 4.78,1.82 6.83,7.56 4.68,12.12 5.06,13.19 10.21,26.34 15.24,39.54 21.29,55.84 39.39,114.78 66.74,168.02 17.97,34.97 43.54,67.5 78.17,84.84 -4.04,-10.05 -6.99,-20.68 -9.82,-31.14 -15.67,-57.93 -27.5,-116.64 -36.05,-175.98 -0.59,-0.89 -1.01,-1.9 -1.1,-2.96 -0.13,-1.47 -0.01,-2.93 0.02,-4.39 -0.69,-4.96 -1.53,-9.9 -2.17,-14.87 -0.58,-4.53 3.94,-6.92 7.86,-6.46 5.04,-10.16 12.57,-19.46 19.93,-26.81 14.6,-14.57 32.44,-26.02 51.26,-34.32 22.26,-9.83 46.04,-15.27 69.86,-19.77 12.95,-2.45 25.96,-4.59 38.91,-7.03 11.89,-2.23 25.17,-7.4 37.15,-4.47 2.19,0.53 3.96,1.89 5.3,3.6 5.45,-1.3 12.11,0.64 14.86,7.16 22.83,54.18 40.34,110.47 52.02,168.1 2.77,13.68 5.55,27.9 7.37,42.16 12.8,-28.88 11.85,-59.75 6.14,-91.94 -7.79,-43.94 -18.25,-87.53 -27.75,-131.13 z m -157.73,-845.1 c -4.64,-43.73 -14.81,-87.29 -31.3,-128.1 -13.91,-34.41 -34.03,-64.2 -54.24,-94.63 -0.24,6.88 -0.39,13.77 -0.66,20.65 -1.84,46.02 -4.3,92.02 -7.24,137.99 -1.52,23.83 -3.22,47.64 -4.93,71.46 -1.55,21.59 -0.86,44.73 -7.5,65.48 28.04,49.77 52.92,101.67 76.53,153.12 4.7,10.24 9.21,20.56 13.8,30.84 12.29,-85.25 24.74,-170.11 15.54,-256.81 z m 1250.04,1685.65 c -2.27,2.76 -5.58,4.6 -9.83,4.37 -18.22,-0.99 -36.66,-12.8 -53.58,-19.27 -17.44,-6.66 -35.12,-12.7 -52.95,-18.21 -36.42,-11.25 -73.63,-19.94 -111.27,-25.95 -37.05,-5.92 -74.66,-9.17 -112.17,-9.99 -1.86,-0.04 -3.72,0 -5.58,-0.02 4.21,56.55 1.39,113.53 -7.89,169.46 -4.72,28.49 -11.31,56.66 -19.87,84.24 -7.77,25.01 -16.34,51.33 -30.12,73.86 1.97,3.98 1.53,9.56 -2.76,12.43 -68.77,45.87 -146.7,-18.09 -201.43,-56.84 -69.33,-49.11 -137.97,-99.2 -205.88,-150.26 -67.49,-50.75 -134.24,-102.47 -200.19,-155.2 -12.77,-10.21 -25.44,-20.58 -38.08,-31 23.47,103.2 45.44,206.81 68.7,310.06 12.78,56.71 25.56,113.43 38.34,170.14 11.97,53.14 30.99,110.05 22.93,165.04 -5.35,36.47 -32.67,82.94 -72.13,89.38 -2.63,4.05 -7.02,6.98 -13.3,7.06 -281.46,3.7 -546.64,-143.04 -705.25,-373.21 -144.01,-208.97 -212.2,-499.28 -119.27,-741.99 -9.93,-3.91 -19.29,-9.87 -28.58,-14.85 -10.74,-5.74 -21.48,-11.49 -32.22,-17.24 -23.01,-12.31 -46.03,-24.62 -69.04,-36.94 -46.8,-25.04 -93.51,-50.23 -140.24,-75.38 -40.47,-21.77 -82.43,-42.29 -120.47,-68.2 -28.49,-19.4 -55.38,-43.99 -65.41,-77.82 -3.4,-0.58 -6.58,-2.65 -8.71,-6.74 -71.76,-137.57 -140.31,-276.63 -207.06,-416.71 -32.93,-69.11 -65.34,-138.5 -96.97,-208.22 -28.6,-63.03 -53.91,-127.72 -43.52,-198.18 5.4,-36.55 19.1,-71.25 36,-103.94 14,-27.07 29.91,-56.88 50.98,-80.22 3.74,-16.54 10.1,-32.52 15.58,-48.55 6.5,-19 13.14,-37.95 19.67,-56.94 13.06,-37.99 25.79,-76.09 38.32,-114.26 24.5,-74.6 47.21,-149.89 65.83,-226.2 36.55,-149.83 57.2,-305.84 47.62,-460.18 -4.4,-70.909 -14.89,-142.311 -31.77,-211.62 -3.54,0.52 -7.33,-0.84 -10.02,-5.09 -15.76,-24.879 -24.59,-55.359 -35.74,-82.57 -11.69,-28.539 -23.13,-57.149 -35.29,-85.488 -24.04,-56.051 -49.32,-111.582 -75.78,-166.52 -53.01,-110.051 -109.54,-218.203 -169.83,-324.434 -16.65,-29.339 -33.65,-58.4761 -50.43,-87.7378 -16.92,-29.5 -36.88,-58.82817 -47.59,-91.3008 -0.63,-1.918 -0.28,-3.5703 0.56,-4.9102 -0.97,-6.7383 2.51,-12.6992 9.72,-15.4101 129.43,-48.7191 267.97,-77.2891 404.79,-95.3981 137.86,-18.25 277.52,-23.301 416.33,-14.782 38.73,2.379 77.4,5.821 115.94,10.321 19.96,2.332 39.9,4.949 59.8,7.812 19.78,2.84 40.56,4.547 59.36,11.488 11.46,4.231 13.47,18.602 6.26,25.559 1.78,3.723 3.3,7.68 5.05,11.5118 l 15.21,33.25 c 9.42,20.5898 18.83,41.1679 28.24,61.74998 19.93,43.55862 39.74,87.16802 59.24,130.92922 29.19,65.532 56.69,131.661 83.64,198.071 23.68,41.64 46.02,84.07 67.8,126.609 40.95,80.012 78.53,161.891 108.96,246.52 30.83,85.73 54.46,174.062 67.47,264.3 13.67,94.82 16.92,190.8 13.45,286.47 -1.93,53.37 -4.7,106.67 -9.71,159.85 -2.54,27.02 -5.41,54.01 -8.51,80.98 -2.85,24.81 -4.64,49.68 -13.23,73.08 3.67,76.41 3.39,153.06 1.12,229.53 53.58,40.85 82.51,114.59 98.07,177.79 19.23,78.07 19.14,159.47 11.45,239.07 -4.42,45.82 -10.51,92 -18.78,137.35 21.51,50.38 41.9,101.25 60.9,152.61 1.3,3.52 0.84,6.53 -0.65,8.86 9.48,9.76 17.07,22.46 23.22,33.42 9.62,17.12 16.83,35.62 22.96,54.24 13.87,42.21 22.05,86.22 31.54,129.55 l 26.98,123.2 c 3.09,-0.48 6.19,-0.81 9.33,-0.73 4.09,0.11 8.18,0.22 12.27,0.33 1.96,0.06 3.92,0.2 5.89,0.31 2.43,-0.38 4.86,-0.7 7.28,-0.88 13.16,-0.99 26.81,0.36 39.92,1.51 23.21,2.03 46.34,5.62 69.07,10.72 48.36,10.84 95,28.84 138.85,51.85 86.32,45.27 160.64,111.13 221.59,186.77 35.25,43.74 66.23,90.74 93.78,139.68 22.93,-4.04 45.95,-7.63 69.08,-10.19 65.78,-7.29 132.44,-8.21 198.44,-3.47 27.99,2.01 58.78,2.59 84.76,14.3 24.8,11.19 38.13,33.59 46.55,58.45 21.03,62.05 34.78,127.31 49.75,191.02 17.14,72.95 34.66,147.57 43.19,222.1 0.91,8.03 -4.16,13.48 -10.68,15.84"
         style="fill:#54241e;fill-opacity:1;fill-rule:nonzero;stroke:none"
         id="path178" />
      <path
         d="m 3618.83,3270.06 c 4.88,9.31 9.74,18.54 15.8,27.16 3,4.26 5.83,8.45 8.01,13.19 1.5,3.24 3.25,6.47 4.09,9.95 0.79,3.21 1.06,6.51 0.2,9.74 -0.59,1.42 -1.19,2.84 -1.79,4.25 -2.57,3.38 -2.99,3.9 -1.25,1.57 -3.32,4.63 -7.42,6.05 -12.92,5.25 3,0.53 2.3,0.46 -2.1,-0.19 -1.45,-0.54 -2.88,-1.13 -4.29,-1.78 -2.62,-1.54 -4.54,-3.83 -6.24,-6.28 -2.03,-2.95 -3.11,-6.48 -4.43,-9.79 -2,-5.04 -3.18,-10.08 -4.24,-15.39 -2.07,-10.31 -5.41,-20.18 -8.79,-30.11 -3.58,-10.51 12.79,-17.41 17.95,-7.57"
         style="fill:#54241e;fill-opacity:1;fill-rule:nonzero;stroke:none"
         id="path180" />
      <path
         d="m 3669.47,3391.84 c 2.38,-1.26 5.25,-1.89 7.88,-1.03 2.43,0.78 4.96,2.32 6.12,4.7 2.33,4.79 4.84,9.54 7,14.42 1.35,3.03 2.42,6.19 3.57,9.3 0.66,1.78 1.26,3.33 1.2,5.32 -0.07,2.16 -0.77,4.17 -1.79,6.05 -1.46,2.66 -4.38,3.31 -7.12,2.89 -1.56,-0.24 -3.18,-0.88 -4.51,-1.7 -2.13,-1.32 -3.33,-3.41 -4.65,-5.45 -1.39,-2.16 -2.91,-4.27 -4.18,-6.5 -2.58,-4.55 -4.8,-9.35 -7.19,-14.01 -1.25,-2.44 -1.77,-5.17 -1.03,-7.88 0.65,-2.37 2.49,-4.94 4.7,-6.11"
         style="fill:#54241e;fill-opacity:1;fill-rule:nonzero;stroke:none"
         id="path182" />
      <path
         d="m 2492.62,3567.02 c -2.96,1.29 -4.83,1.48 -7.98,1.04 -3.64,-0.51 -6.09,-4.11 -7.22,-7.22 -4.54,-12.45 -5.17,-25.34 -6.02,-38.46 -0.88,-13.46 -1.25,-26.88 -0.89,-40.36 0.7,-26.32 5.42,-51.73 9.88,-77.62 1.04,-5.99 10.91,-4.6 10.61,1.44 -1.23,25.34 0.78,50.85 2.05,76.18 0.63,12.46 1.38,24.94 2.45,37.37 1.11,12.99 3.33,25.65 2.24,38.69 -0.28,3.37 -1.7,7.45 -5.12,8.94"
         style="fill:#54241e;fill-opacity:1;fill-rule:nonzero;stroke:none"
         id="path184" />
      <path
         d="m 2519.04,3676.54 c -2.25,0.95 -5.15,0.55 -6.88,-1.3 -1.16,-1.23 -2.4,-2.44 -3.24,-3.92 -0.87,-1.52 -1.39,-3.4 -2.03,-5.05 l -2.96,-7.57 c -1.97,-5.05 -3.84,-10.13 -5.75,-15.2 -1.48,-3.93 1.65,-8.96 5.6,-9.87 4.49,-1.02 8.38,1.36 9.87,5.61 1.76,5 3.56,10 5.25,15.03 0.84,2.47 1.67,4.94 2.5,7.4 0.43,1.27 0.97,2.55 1.29,3.84 0.45,1.76 0.32,3.5 0.23,5.28 -0.14,2.55 -1.48,4.74 -3.88,5.75"
         style="fill:#54241e;fill-opacity:1;fill-rule:nonzero;stroke:none"
         id="path186" />
      <path
         d="m 3175.81,4004.3 c 3.64,-2.13 9.03,-1.05 11.92,1.88 1.72,1.74 3.09,3.84 4.44,5.87 1.94,2.93 3.56,5.88 5.13,9.03 1.65,3.33 3.04,6.79 4.5,10.2 0.95,2.2 2.15,4.46 2.87,6.74 0.55,1.7 0.91,3.49 1.36,5.23 0.87,3.35 -0.54,7.47 -3.72,9.15 -3.07,1.62 -7.36,1.47 -9.82,-1.27 -5.24,-5.84 -9.74,-12.43 -13.68,-19.24 -1.76,-3.05 -3.33,-6.03 -4.71,-9.28 -0.96,-2.28 -2.08,-4.53 -2.65,-6.96 -0.95,-4.07 0.58,-9.13 4.36,-11.35"
         style="fill:#54241e;fill-opacity:1;fill-rule:nonzero;stroke:none"
         id="path188" />
      <path
         d="m 2578.71,3158.13 c -5.46,8.35 -10.32,17.04 -15.42,25.62 -4.92,8.29 -9.36,16.84 -13.68,25.46 -4.58,9.15 -9.78,17.78 -13.71,27.27 -3.07,7.42 -14.13,4.85 -12.31,-3.39 2.18,-9.91 4.02,-20.23 7.12,-29.9 3.32,-10.33 7.83,-20.37 12.37,-30.21 4.3,-9.32 9.65,-18.17 15.17,-26.82 2.99,-4.68 6.24,-9.02 9.95,-13.18 3.71,-4.16 7.42,-9.28 13.16,-10.46 5.62,-1.15 10.27,2.43 10.67,8.13 0.37,5.35 -2.95,9.79 -5.43,14.28 -2.5,4.52 -5.05,8.87 -7.89,13.2"
         style="fill:#54241e;fill-opacity:1;fill-rule:nonzero;stroke:none"
         id="path190" />
      <path
         d="m 2686.37,3041.3 c -1.17,1.17 -2.4,2.27 -3.6,3.4 l -6.98,6.6 c -2.25,2.13 -4.45,4.34 -6.86,6.31 -2.56,2.09 -5.13,4.19 -7.69,6.29 -1.66,1.36 -3.33,2.3 -5.56,2.3 -1.92,0 -4.22,-0.85 -5.55,-2.3 -2.64,-2.88 -3.4,-8.33 0,-11.11 5.42,-4.43 10.83,-8.78 16.56,-12.82 2.61,-1.83 5.21,-3.67 7.82,-5.51 1.26,-0.89 2.52,-1.78 3.79,-2.67 1.63,-1.15 3.57,-1.79 5.41,-2.56 1.89,-0.8 4.37,0.41 5.51,1.87 1.21,1.57 1.58,4.09 0.4,5.82 -1.01,1.5 -1.97,3.09 -3.25,4.38"
         style="fill:#54241e;fill-opacity:1;fill-rule:nonzero;stroke:none"
         id="path192" />
      <path
         d="m 3245.06,3543.42 c -3.39,0.94 -6.55,0.21 -9.68,-1.19 l -2.62,-1.24 c -3.93,-1.87 -7.14,-5.12 -9.96,-8.39 -2.35,-2.71 -4.7,-5.42 -7.05,-8.13 -3.04,-3.5 -5.69,-7.32 -8.56,-10.96 -0.73,-0.92 0.53,0.7 0.51,0.7 l -1.2,-1.41 -1.92,-2.27 c -1.36,-1.61 -2.72,-3.21 -4.08,-4.82 -2.95,-3.49 -3.62,-8.16 -0.71,-11.93 2.53,-3.27 8.06,-5.02 11.72,-2.34 5.57,4.08 11.19,8 16.94,11.83 2.91,1.95 5.66,4.18 8.46,6.29 3.49,2.61 7.08,5.09 10.15,8.21 1.87,1.9 3.19,4.07 4.48,6.37 1.04,1.86 1.87,3.7 2.15,5.82 0.38,2.77 -0.09,5.65 -1.5,8.11 -1.51,2.66 -4.2,4.54 -7.13,5.35"
         style="fill:#54241e;fill-opacity:1;fill-rule:nonzero;stroke:none"
         id="path194" />
      <path
         d="m 3326.96,3615.9 c -8.53,0 -8.54,-13.25 0,-13.25 8.53,0 8.55,13.25 0,13.25"
         style="fill:#54241e;fill-opacity:1;fill-rule:nonzero;stroke:none"
         id="path196" />
      <path
         d="m 3303.46,3559.39 c -1.58,-1.15 -3.2,-2.21 -4.46,-3.72 -1.08,-1.3 -2.16,-2.6 -3.24,-3.9 -2.29,-2.76 -4.58,-5.52 -6.87,-8.28 l -13.54,-16.32 c -1.69,-2.04 -2,-4.95 0,-6.95 1.75,-1.75 5.23,-2.04 6.94,0 4.54,5.42 9.07,10.84 13.61,16.26 l 6.7,8.01 c 1.08,1.29 2.17,2.59 3.25,3.88 1.43,1.7 2.37,3.33 3.32,5.31 0.81,1.69 0.73,3.67 -0.65,5.06 -1.22,1.22 -3.58,1.73 -5.06,0.65"
         style="fill:#54241e;fill-opacity:1;fill-rule:nonzero;stroke:none"
         id="path198" />
      <path
         d="m 3276.91,3569.55 c 1.01,1.03 2.02,2.05 3.03,3.08 0.83,0.84 1.68,1.65 2.34,2.64 l 0.99,1.98 c 0.39,0.83 0.71,1.68 0.71,2.61 0,1.14 -0.42,2.22 -1.11,3.12 -1.3,1.68 -3.36,2.31 -5.42,1.85 -0.9,-0.2 -1.77,-0.37 -2.62,-0.73 -0.91,-0.38 -1.68,-0.86 -2.52,-1.38 -1.25,-0.78 -2.5,-1.56 -3.76,-2.34 -1.02,-0.64 -2.09,-1.26 -2.99,-2.08 l -1.52,-1.63 -1.5,-1.64 c -0.86,-0.96 -1.42,-1.9 -1.97,-3.02 -0.43,-0.89 -0.77,-1.85 -0.77,-2.85 0,-1.26 0.46,-2.44 1.22,-3.42 1.41,-1.83 3.68,-2.55 5.93,-2.03 1.15,0.27 2.22,0.56 3.28,1.14 l 1.93,1.1 1.91,1.11 c 1.08,0.7 1.95,1.58 2.84,2.49"
         style="fill:#54241e;fill-opacity:1;fill-rule:nonzero;stroke:none"
         id="path200" />
      <path
         d="m 3386.25,3657.86 c -1.35,1.24 -3.75,1.87 -5.36,0.7 -4.59,-3.37 -8.87,-7.09 -13.22,-10.76 -1.98,-1.66 -3.61,-3.93 -5.33,-5.87 -1.86,-2.09 -3.73,-4.19 -5.59,-6.28 -2.44,-2.75 -2.91,-7.28 0,-9.96 2.68,-2.45 7.34,-2.93 9.95,0 1.81,2.04 3.62,4.07 5.43,6.11 2.08,2.34 4.42,4.61 6.2,7.18 3.04,4.38 5.99,8.88 8.61,13.53 0.93,1.65 0.76,4.02 -0.69,5.35"
         style="fill:#54241e;fill-opacity:1;fill-rule:nonzero;stroke:none"
         id="path202" />
    </g>
  </g>
</svg>
